<svg xmlns="http://www.w3.org/2000/svg" xmlns:xlink="http://www.w3.org/1999/xlink" width="2000" zoomAndPan="magnify" viewBox="280 390 900 720" height="2000" preserveAspectRatio="xMidYMid meet" version="1.0"><defs><filter x="0%" y="0%" width="100%" height="100%" id="0beb44c880"><feColorMatrix values="0 0 0 0 1 0 0 0 0 1 0 0 0 0 1 0 0 0 1 0" color-interpolation-filters="sRGB"/></filter><g/><clipPath id="e83ca0694c"><path d="M 331 436.820312 L 1163 436.820312 L 1163 1063.070312 L 331 1063.070312 Z M 331 436.820312 " clip-rule="nonzero"/></clipPath><mask id="52c303b9d5"><g filter="url(#0beb44c880)"><rect x="-150" width="1800" fill="#000000" y="-149.999993" height="1799.99992" fill-opacity="0.75"/></g></mask><clipPath id="0c6d39a2c3"><path d="M 0.921875 28 L 831.320312 28 L 831.320312 199 L 0.921875 199 Z M 0.921875 28 " clip-rule="nonzero"/></clipPath><clipPath id="8012f222ce"><path d="M 395 393 L 431 393 L 431 627.070312 L 395 627.070312 Z M 395 393 " clip-rule="nonzero"/></clipPath><clipPath id="cc197d4920"><path d="M 368 0.820312 L 460 0.820312 L 460 81 L 368 81 Z M 368 0.820312 " clip-rule="nonzero"/></clipPath><clipPath id="0b68773350"><path d="M 366 0.820312 L 462 0.820312 L 462 83 L 366 83 Z M 366 0.820312 " clip-rule="nonzero"/></clipPath><clipPath id="5a8f57c2b9"><rect x="0" width="832" y="0" height="628"/></clipPath><clipPath id="b0d5fa3fac"><path d="M 1033.441406 1092 L 1068 1092 L 1068 1138 L 1033.441406 1138 Z M 1033.441406 1092 " clip-rule="nonzero"/></clipPath><clipPath id="87e2203d71"><path d="M 1039 1088.257812 L 1062 1088.257812 L 1062 1097 L 1039 1097 Z M 1039 1088.257812 " clip-rule="nonzero"/></clipPath><clipPath id="665bb7cd2e"><path d="M 1060 1112 L 1082 1112 L 1082 1138.507812 L 1060 1138.507812 Z M 1060 1112 " clip-rule="nonzero"/></clipPath><clipPath id="a3e7cece8d"><path d="M 0.640625 7 L 31 7 L 31 31 L 0.640625 31 Z M 0.640625 7 " clip-rule="nonzero"/></clipPath><clipPath id="adb4fb06f8"><rect x="0" width="548" y="0" height="40"/></clipPath></defs><g clip-path="url(#e83ca0694c)"><g mask="url(#52c303b9d5)"><g transform="matrix(1, 0, 0, 1, 331, 436)"><g clip-path="url(#5a8f57c2b9)"><path fill="#000000" d="M 609.898438 130.71875 C 602.332031 103.304688 594.769531 75.890625 587.203125 48.476562 C 585.820312 43.464844 584.4375 38.453125 583.054688 33.441406 C 581.984375 29.5625 576.40625 29.121094 572.617188 27.128906 C 562.699219 21.914062 548.949219 15.550781 537.339844 15.550781 C 527.1875 15.550781 514.203125 28.601562 506.707031 34.085938 C 496.445312 41.589844 491.4375 53.125 488.308594 64.136719 C 485.253906 74.894531 493.050781 85.414062 487.527344 96.691406 C 482.273438 107.40625 469.273438 115.457031 457.171875 119.433594 C 431.015625 128.03125 403.308594 128.460938 377.09375 119.199219 C 365.664062 115.164062 352.695312 108.851562 346.046875 99.3125 C 338.867188 89.011719 342.46875 76.867188 342.46875 65.582031 C 342.46875 53.546875 335.9375 43.855469 327.386719 34.863281 C 324.015625 31.316406 318.007812 26.777344 313.820312 23.925781 C 311.140625 22.105469 299.78125 14.503906 297.101562 14.503906 C 284.136719 14.503906 271.816406 18.800781 260.714844 24.648438 C 259.066406 25.515625 249.425781 29.886719 249.195312 30.796875 C 248.011719 35.394531 246.824219 40 245.640625 44.601562 C 241.207031 61.816406 236.773438 79.03125 232.339844 96.25 C 230.496094 103.410156 228.652344 110.570312 226.808594 117.730469 C 226.300781 119.714844 223.453125 125.582031 224.277344 127.574219 C 225.3125 130.09375 233.097656 133.730469 235.402344 135.339844 C 243.804688 141.203125 252.203125 147.066406 260.601562 152.933594 C 265.695312 156.488281 277.332031 168.425781 284.214844 168.402344 C 351.335938 168.167969 418.453125 167.933594 485.578125 167.699219 C 514.742188 167.59375 543.902344 167.492188 573.066406 167.390625 C 580.863281 167.363281 580.753906 167.960938 585.4375 162.144531 C 590.960938 155.277344 596.492188 148.410156 602.015625 141.542969 C 604.570312 138.378906 609.105469 134.519531 609.894531 130.722656 " fill-opacity="1" fill-rule="nonzero"/><path stroke-linecap="square" transform="matrix(1.31361, 0, 0, 1.313444, -4.33272, -4.433944)" fill-opacity="1" fill="#000000" fill-rule="nonzero" stroke-linejoin="miter" d="M 467.590125 102.899487 C 461.830116 82.027591 456.073081 61.155695 450.313072 40.283799 C 449.260391 36.46809 448.20771 32.652382 447.155029 28.836673 C 446.340242 25.88344 442.093834 25.547372 439.209369 24.030606 C 431.659208 20.060246 421.191872 15.215516 412.354109 15.215516 C 404.625527 15.215516 394.741031 25.151823 389.034549 29.327392 C 381.222704 35.040546 377.410452 43.822921 375.028539 52.206773 C 372.703125 60.397312 378.63858 68.406433 374.433804 76.992521 C 370.434211 85.150345 360.53782 91.279866 351.325374 94.307451 C 331.413645 100.853339 310.321367 101.180485 290.365034 94.129008 C 281.66406 91.056812 271.791459 86.250745 266.730264 78.98811 C 261.264649 71.145535 264.006377 61.899208 264.006377 53.307172 C 264.006377 44.144118 259.034392 36.765496 252.525017 29.919228 C 249.958736 27.218789 245.385223 23.762941 242.197444 21.591883 C 240.157502 20.205975 231.510055 14.41847 229.470114 14.41847 C 219.600486 14.41847 210.221515 17.689927 201.77033 22.142083 C 200.515439 22.802322 193.176409 26.130286 193.000962 26.82324 C 192.099938 30.323699 191.195941 33.830106 190.294918 37.33354 C 186.919796 50.440186 183.544675 63.546833 180.169554 76.656453 C 178.765979 82.10789 177.362404 87.559327 175.95883 93.010764 C 175.572252 94.521583 173.404443 98.988609 174.031888 100.505375 C 174.819912 102.423639 180.746447 105.192481 182.500915 106.41779 C 188.89729 110.881842 195.290692 115.345894 201.684093 119.81292 C 205.561766 122.519307 214.420344 131.60801 219.65996 131.590165 C 270.75662 131.411722 321.850306 131.233279 372.94994 131.054836 C 394.907557 130.977511 416.865174 130.900185 438.825765 130.82286 C 443.084068 130.80799 445.055615 131.688309 447.491055 128.65775 C 454.190745 120.339327 460.887461 112.014956 467.584178 103.693559 " stroke="#000000" stroke-width="0.1" stroke-opacity="1" stroke-miterlimit="10"/><path fill="#000000" d="M 404.554688 195.617188 C 393.660156 187.375 374.554688 187.785156 361.082031 189.257812 C 345.660156 190.9375 328.839844 189.332031 313.285156 189.332031 C 297.570312 189.332031 281.75 189.050781 266.070312 188.292969 C 257.976562 187.898438 221.539062 185.34375 236.21875 172.585938 C 221.742188 178.925781 183.816406 179.203125 186.074219 157.925781 C 173.957031 160.960938 161.574219 162.238281 149.058594 160.019531 C 140.742188 158.546875 116.65625 152.128906 126.378906 141.179688 C 114.375 140.519531 52.695312 135.976562 75.042969 113.957031 C 63.332031 112.417969 50.261719 108.851562 39.667969 104.207031 C 28.929688 99.496094 16.210938 95.886719 7.433594 88.175781 C 2.675781 83.992188 -1.933594 80.027344 6.71875 76.988281 C 14.152344 74.375 21.164062 74.167969 29.097656 74.167969 C 43.992188 74.167969 58.4375 74.863281 73.410156 74.316406 C 128.84375 72.289062 181.925781 59.761719 231.4375 38.054688 C 237.40625 35.4375 243.375 32.820312 249.347656 30.203125 C 240.488281 40.175781 258.0625 46.65625 266.507812 47.890625 C 276.289062 49.316406 286.691406 47.550781 295.910156 44.859375 C 295.910156 52.535156 295.21875 58.914062 301.871094 64.75 C 306.191406 68.542969 316.363281 70.316406 322.164062 67.894531 C 323.792969 79.3125 324.695312 91.472656 331.597656 101.570312 C 339.167969 112.644531 348.390625 120.738281 360.863281 127.578125 C 379.257812 137.664062 411.777344 141.375 430.8125 139.085938 C 452.402344 136.492188 484.683594 128.335938 495.535156 109.324219 C 502.398438 97.296875 505.957031 86.15625 507.976562 72.855469 C 508.804688 67.378906 515.304688 70.988281 520.347656 69.988281 C 525.445312 68.972656 532.058594 65.269531 533.789062 60.796875 C 535.738281 55.75 535.667969 52.148438 534.6875 46.957031 C 550.179688 49.21875 589.25 55.054688 582.441406 31.253906 C 607.859375 42.398438 632.996094 52.691406 659.785156 61.089844 C 685.757812 69.230469 714.535156 72 741.871094 74.28125 C 755.445312 75.410156 769.375 76.53125 783 76.269531 C 796.402344 76.011719 812.355469 73.585938 825.042969 78.039062 C 839.960938 83.277344 813.6875 96.410156 808.066406 99.304688 C 797.847656 104.570312 785.886719 107.699219 774.652344 110.816406 C 768.617188 112.488281 763.003906 113.910156 756.742188 115.011719 C 766.6875 124.101562 755.804688 133.503906 745.898438 136.761719 C 732.777344 141.082031 719.273438 141.46875 705.394531 142.226562 C 715.039062 153.023438 690.6875 159.925781 682.386719 160.964844 C 669.074219 162.632812 657.535156 161.835938 644.511719 158.980469 C 650.59375 168.914062 632.457031 174.9375 625.15625 177.5 C 616.480469 180.542969 603.285156 177.027344 595.566406 173.636719 C 600.984375 182.28125 596.199219 183.671875 586.945312 186.921875 C 580 189.363281 569.882812 188.910156 562.476562 189.503906 C 544.03125 190.972656 525.121094 191.4375 506.59375 191.4375 C 489.40625 191.4375 472.046875 190.386719 454.769531 190.386719 C 446.863281 190.386719 438.207031 190.699219 430.8125 193.53125 C 425.9375 195.398438 426.734375 196.707031 421.179688 196.433594 C 415.648438 196.160156 410.101562 195.886719 404.554688 195.617188 " fill-opacity="1" fill-rule="nonzero"/><path fill="#000000" d="M 404.554688 195.617188 C 393.660156 187.375 374.554688 187.785156 361.082031 189.257812 C 345.660156 190.9375 328.839844 189.332031 313.285156 189.332031 C 297.570312 189.332031 281.75 189.050781 266.070312 188.292969 C 257.976562 187.898438 221.539062 185.34375 236.21875 172.585938 C 221.742188 178.925781 183.816406 179.203125 186.074219 157.925781 C 173.957031 160.960938 161.574219 162.238281 149.058594 160.019531 C 140.742188 158.546875 116.65625 152.128906 126.378906 141.179688 C 114.375 140.519531 52.695312 135.976562 75.042969 113.957031 C 63.332031 112.417969 50.261719 108.851562 39.667969 104.207031 C 28.929688 99.496094 16.210938 95.886719 7.433594 88.175781 C 2.675781 83.992188 -1.933594 80.027344 6.71875 76.988281 C 14.152344 74.375 21.164062 74.167969 29.097656 74.167969 C 43.992188 74.167969 58.4375 74.863281 73.410156 74.316406 C 128.84375 72.289062 181.925781 59.761719 231.4375 38.054688 C 237.40625 35.4375 243.375 32.820312 249.347656 30.203125 C 240.488281 40.175781 258.0625 46.65625 266.507812 47.890625 C 276.289062 49.316406 286.691406 47.550781 295.910156 44.859375 C 295.910156 52.535156 295.21875 58.914062 301.871094 64.75 C 306.191406 68.542969 316.363281 70.316406 322.164062 67.894531 C 323.792969 79.3125 324.695312 91.472656 331.597656 101.570312 C 339.167969 112.644531 348.390625 120.738281 360.863281 127.578125 C 379.257812 137.664062 411.777344 141.375 430.8125 139.085938 C 452.402344 136.492188 484.683594 128.335938 495.535156 109.324219 C 502.398438 97.296875 505.957031 86.15625 507.976562 72.855469 C 508.804688 67.378906 515.304688 70.988281 520.347656 69.988281 C 525.445312 68.972656 532.058594 65.269531 533.789062 60.796875 C 535.738281 55.75 535.667969 52.148438 534.6875 46.957031 C 550.179688 49.21875 589.25 55.054688 582.441406 31.253906 C 607.859375 42.398438 632.996094 52.691406 659.785156 61.089844 C 685.757812 69.230469 714.535156 72 741.871094 74.28125 C 755.445312 75.410156 769.375 76.53125 783 76.269531 C 796.402344 76.011719 812.355469 73.585938 825.042969 78.039062 C 839.960938 83.277344 813.6875 96.410156 808.066406 99.304688 C 797.847656 104.570312 785.886719 107.699219 774.652344 110.816406 C 768.617188 112.488281 763.003906 113.910156 756.742188 115.011719 C 766.6875 124.101562 755.804688 133.503906 745.898438 136.761719 C 732.777344 141.082031 719.273438 141.46875 705.394531 142.226562 C 715.039062 153.023438 690.6875 159.925781 682.386719 160.964844 C 669.074219 162.632812 657.535156 161.835938 644.511719 158.980469 C 650.59375 168.914062 632.457031 174.9375 625.15625 177.5 C 616.480469 180.542969 603.285156 177.027344 595.566406 173.636719 C 600.984375 182.28125 596.199219 183.671875 586.945312 186.921875 C 580 189.363281 569.882812 188.910156 562.476562 189.503906 C 544.03125 190.972656 525.121094 191.4375 506.59375 191.4375 C 489.40625 191.4375 472.046875 190.386719 454.769531 190.386719 C 446.863281 190.386719 438.207031 190.699219 430.8125 193.53125 C 425.9375 195.398438 426.734375 196.707031 421.179688 196.433594 C 415.648438 196.160156 410.101562 195.886719 404.554688 195.617188 " fill-opacity="1" fill-rule="nonzero"/><g clip-path="url(#0c6d39a2c3)"><path stroke-linecap="square" transform="matrix(1.31361, 0, 0, 1.313444, -4.33272, -4.433944)" fill="none" stroke-linejoin="miter" d="M 311.26997 152.310385 C 302.97639 146.035135 288.432145 146.347411 278.175939 147.468628 C 266.43587 148.74747 253.631225 147.525135 241.79005 147.525135 C 229.826955 147.525135 217.783571 147.311003 205.847239 146.734037 C 199.685784 146.433658 171.947342 144.488628 183.122413 134.775375 C 172.101973 139.602261 143.230561 139.813419 144.949345 123.613758 C 135.725005 125.924596 126.298455 126.897111 116.7708 125.20785 C 110.439845 124.086632 92.104164 119.200265 99.505642 110.863998 C 90.367538 110.361383 43.413207 106.902561 60.425603 90.13783 C 51.510525 88.966054 41.560608 86.250745 33.496001 82.714597 C 25.321368 79.12789 15.639082 76.379866 8.957233 70.509088 C 5.335297 67.323879 1.82636 64.305216 8.413051 61.991404 C 14.071955 60.001763 19.409702 59.844138 25.449236 59.844138 C 36.787859 59.844138 47.78451 60.373519 59.182607 59.957152 C 101.382031 58.413619 141.791302 48.875835 179.482635 32.349029 C 184.02641 30.356414 188.570186 28.363799 193.116935 26.371184 C 186.37264 33.963939 199.751205 38.897891 206.18029 39.837691 C 213.626373 40.92322 221.54527 39.578949 228.563143 37.529827 C 228.563143 43.373839 228.036803 48.230466 233.100971 52.673699 C 236.389856 55.561503 244.133306 56.911723 248.549214 55.067811 C 249.789236 63.760964 250.476155 73.019188 255.730639 80.707112 C 261.493622 89.138549 268.514469 95.300784 278.009413 100.508349 C 292.01245 108.187351 316.768295 111.0127 331.259014 109.269906 C 347.694517 107.295136 372.268968 101.085315 380.529838 86.610605 C 385.754585 77.453499 388.463603 68.971503 390.000993 58.844857 C 390.631412 54.675236 395.579608 57.42326 399.418622 56.661903 C 403.299268 55.888649 408.3337 53.069248 409.651038 49.663959 C 411.134902 45.821484 411.081376 43.079408 410.334984 39.126893 C 422.128579 40.848869 451.871278 45.292102 446.688162 27.171204 C 466.037867 35.656174 485.173466 43.492801 505.56693 49.887012 C 525.338896 56.084937 547.245961 58.193539 568.05574 59.930386 C 578.389261 60.789887 588.993386 61.643439 599.365565 61.444178 C 609.568245 61.247891 621.712734 59.401004 631.371231 62.791423 C 642.727696 66.779627 622.726757 76.778389 618.447639 78.982162 C 610.668505 82.991184 601.563111 85.373399 593.010822 87.746693 C 588.416493 89.019587 584.143322 90.102142 579.376521 90.940824 C 586.947498 97.861443 578.662839 105.019986 571.121599 107.500345 C 561.133024 110.789647 550.853029 111.084078 540.287561 111.661044 C 547.629565 119.881323 529.091674 125.136473 522.772615 125.92757 C 512.63833 127.197491 503.854093 126.590784 493.93986 124.416752 C 498.569873 131.979766 484.763099 136.565754 479.2053 138.516732 C 472.600768 140.833518 462.555693 138.156872 456.679711 135.575395 C 460.804198 142.156971 457.161446 143.215734 450.11681 145.690145 C 444.829615 147.548928 437.127797 147.203938 431.489709 147.655993 C 417.448015 148.774237 403.052453 149.128149 388.948312 149.128149 C 375.864141 149.128149 362.649129 148.328129 349.496564 148.328129 C 343.477845 148.328129 336.888181 148.566053 331.259014 150.722241 C 327.547868 152.143838 328.154497 153.140145 323.925931 152.931961 C 319.715207 152.723778 315.492589 152.515594 311.26997 152.310385 " stroke="#000000" stroke-width="0.1" stroke-opacity="1" stroke-miterlimit="10"/></g><path fill="#000000" d="M 398.589844 476.207031 C 402.671875 476.636719 404.414062 470.199219 406.949219 467.832031 C 411.214844 463.847656 417.058594 460.878906 422.207031 457.867188 C 432.054688 452.101562 442.390625 445.492188 452.765625 440.929688 C 464.222656 435.898438 474.585938 431.390625 483.359375 422.8125 C 485.839844 420.386719 501.519531 395.589844 494.382812 395.589844 L 468.765625 395.589844 C 457.898438 395.589844 461.839844 395.652344 457.027344 402.667969 C 450.15625 412.683594 440.128906 420.460938 428.445312 425.953125 C 405.394531 436.785156 384.878906 446.828125 372.695312 468.226562 C 368.691406 475.265625 369.933594 483.246094 369.933594 490.871094 C 379.882812 486.332031 389.828125 481.792969 399.78125 477.257812 C 399.378906 476.902344 398.984375 476.554688 398.589844 476.207031 " fill-opacity="1" fill-rule="nonzero"/><path stroke-linecap="square" transform="matrix(1.31361, 0, 0, 1.313444, -4.33272, -4.433944)" fill-opacity="1" fill="#000000" fill-rule="nonzero" stroke-linejoin="miter" d="M 352.178819 303.761002 C 352.178819 320.97184 327.042343 327.752678 313.095806 334.845792 C 305.73596 338.590123 296.303463 345.599963 291.908371 352.000123 C 285.958047 360.675432 284.914287 367.114254 284.914287 377.098146 " stroke="#000000" stroke-width="0.1" stroke-opacity="1" stroke-miterlimit="10"/><path stroke-linecap="square" transform="matrix(1.31361, 0, 0, 1.313444, -4.33272, -4.433944)" fill-opacity="1" fill="#000000" fill-rule="nonzero" stroke-linejoin="miter" d="M 306.729168 365.939504 C 309.836658 366.26665 311.162918 361.365412 313.092833 359.563137 C 316.102192 356.749684 320.303995 354.441819 324.000273 352.389724 C 331.467171 348.240921 338.993543 343.024434 346.722125 339.631041 C 363.526363 332.24647 380.34547 322.893077 380.34547 304.561022 " stroke="#000000" stroke-width="0.1" stroke-opacity="1" stroke-miterlimit="10"/><path fill="#000000" d="M 400.980469 545.308594 C 400.367188 535.605469 415.34375 524.355469 422.464844 518.089844 C 415.691406 515.277344 408.914062 512.460938 402.136719 509.644531 C 397.339844 507.652344 393.269531 515.429688 389.972656 518.320312 C 382.574219 524.800781 374.898438 536.957031 375.902344 546.359375 C 384.261719 546.007812 392.621094 545.65625 400.980469 545.308594 " fill-opacity="1" fill-rule="nonzero"/><path stroke-linecap="square" transform="matrix(1.31361, 0, 0, 1.313444, -4.33272, -4.433944)" fill-opacity="1" fill="#000000" fill-rule="nonzero" stroke-linejoin="miter" d="M 308.549057 418.550481 C 308.08219 411.162937 319.483261 402.597667 324.90427 397.827288 C 319.747918 395.685971 314.588591 393.541679 309.429265 391.397388 C 305.777592 389.880621 302.679022 395.801959 300.169241 398.002757 C 294.5371 402.936709 288.693828 412.191958 289.458063 419.350501 " stroke="#000000" stroke-width="0.1" stroke-opacity="1" stroke-miterlimit="10"/><path fill="#000000" d="M 422.460938 559.964844 C 434.972656 558.453125 445.933594 549.625 451.121094 540.074219 C 455.003906 532.929688 453.71875 532.796875 445.511719 530.738281 C 435.203125 528.160156 424.890625 525.574219 414.582031 522.992188 C 410.3125 521.921875 407.675781 528.105469 406.632812 531.738281 C 405.496094 535.679688 399.109375 543.519531 399.769531 547.402344 C 400.367188 550.886719 407.28125 553.433594 410.785156 554.460938 C 413.980469 555.402344 422.722656 561.769531 422.460938 559.964844 " fill-opacity="1" fill-rule="nonzero"/><path stroke-linecap="square" transform="matrix(1.31361, 0, 0, 1.313444, -4.33272, -4.433944)" fill-opacity="1" fill="#000000" fill-rule="nonzero" stroke-linejoin="miter" d="M 324.901297 429.709124 C 333.801506 428.632517 350.757402 418.187647 348.533093 408.985931 " stroke="#000000" stroke-width="0.1" stroke-opacity="1" stroke-miterlimit="10"/><path stroke-linecap="square" transform="matrix(1.31361, 0, 0, 1.313444, -4.33272, -4.433944)" fill-opacity="1" fill="#000000" fill-rule="nonzero" stroke-linejoin="miter" d="M 544.840258 63.041244 C 562.46523 66.892641 582.605932 69.054777 600.662088 67.085954 C 604.319708 66.687431 624.133306 63.981044 626.640114 66.229427 C 631.139284 70.265216 610.234348 78.428988 607.123884 79.597791 C 600.93864 81.923499 592.772928 85.355555 585.942396 85.355555 L 557.252378 85.355555 C 548.155906 85.355555 538.24762 82.76813 529.338489 81.200805 C 522.716115 80.03795 508.829052 79.068409 503.943304 74.996932 " stroke="#000000" stroke-width="0.1" stroke-opacity="1" stroke-miterlimit="10"/><path stroke-linecap="square" transform="matrix(1.31361, 0, 0, 1.313444, -4.33272, -4.433944)" fill-opacity="1" fill="#000000" fill-rule="nonzero" stroke-linejoin="miter" d="M 479.419405 87.746693 C 488.060905 94.771403 504.564802 97.909028 515.403848 101.47789 C 527.705942 105.528549 542.030135 106.084696 555.060779 106.084696 C 560.630473 106.084696 567.692951 103.634078 572.317016 100.918768 C 579.260548 96.847291 573.265619 91.734896 567.009006 91.734896 C 552.818628 91.734896 539.72851 88.989846 525.770079 86.955595 " stroke="#000000" stroke-width="0.1" stroke-opacity="1" stroke-miterlimit="10"/><path stroke-linecap="square" transform="matrix(1.31361, 0, 0, 1.313444, -4.33272, -4.433944)" fill-opacity="1" fill="#000000" fill-rule="nonzero" stroke-linejoin="miter" d="M 475.779626 96.517172 C 483.799628 100.740325 492.473839 103.259347 501.323496 105.849746 C 505.879166 107.182122 510.4051 108.505575 514.865612 110.069926 C 518.154497 111.223858 525.071266 111.81272 527.578074 114.055155 C 535.11634 120.803279 513.117091 120.663499 509.402971 120.428549 C 500.618735 119.878349 494.023123 116.800205 485.774148 114.852201 " stroke="#000000" stroke-width="0.1" stroke-opacity="1" stroke-miterlimit="10"/><path stroke-linecap="square" transform="matrix(1.31361, 0, 0, 1.313444, -4.33272, -4.433944)" fill-opacity="1" fill="#000000" fill-rule="nonzero" stroke-linejoin="miter" d="M 446.700057 104.490605 C 453.141037 107.339746 492.384628 118.721443 483.056209 129.199028 C 477.709541 135.203638 462.737087 131.236253 456.35558 129.365574 C 447.586212 126.795994 439.530526 123.848708 431.23992 120.431523 " stroke="#000000" stroke-width="0.1" stroke-opacity="1" stroke-miterlimit="10"/><path stroke-linecap="square" transform="matrix(1.31361, 0, 0, 1.313444, -4.33272, -4.433944)" fill-opacity="1" fill="#000000" fill-rule="nonzero" stroke-linejoin="miter" d="M 418.509617 122.819686 C 424.245836 126.983359 433.024125 128.170006 439.4205 131.584217 C 443.512277 133.767171 454.161008 141.951762 443.060279 141.951762 C 439.545395 141.951762 435.9978 143.126512 432.143917 142.745834 C 427.537694 142.293778 423.202076 140.652101 418.863484 139.391103 C 409.517223 136.666872 402.083035 131.545554 393.97977 126.804916 " stroke="#000000" stroke-width="0.1" stroke-opacity="1" stroke-miterlimit="10"/><path stroke-linecap="square" transform="matrix(1.31361, 0, 0, 1.313444, -4.33272, -4.433944)" fill-opacity="1" fill="#000000" fill-rule="nonzero" stroke-linejoin="miter" d="M 464.881107 39.123919 C 474.914287 43.546334 485.503544 46.362761 495.768671 50.282561 C 502.851965 52.988949 517.779814 60.992122 501.231312 63.041244 C 477.795778 65.940944 452.644434 56.200925 431.242894 48.68847 " stroke="#000000" stroke-width="0.1" stroke-opacity="1" stroke-miterlimit="10"/><path stroke-linecap="square" transform="matrix(1.31361, 0, 0, 1.313444, -4.33272, -4.433944)" fill-opacity="1" fill="#000000" fill-rule="nonzero" stroke-linejoin="miter" d="M 445.781191 59.056014 C 453.688194 62.862801 463.144481 64.439048 471.235851 67.820545 C 474.13221 69.02801 481.55153 70.824338 483.059183 73.399866 C 484.908809 76.570206 481.845924 76.138968 478.298329 77.179886 C 468.446543 80.064717 458.594758 75.020725 449.756995 72.436274 C 439.84871 69.539547 430.30916 64.400386 421.248371 59.847112 " stroke="#000000" stroke-width="0.1" stroke-opacity="1" stroke-miterlimit="10"/><path stroke-linecap="square" transform="matrix(1.31361, 0, 0, 1.313444, -4.33272, -4.433944)" fill-opacity="1" fill="#000000" fill-rule="nonzero" stroke-linejoin="miter" d="M 409.419092 62.244198 C 418.601801 66.500066 428.86098 69.613898 437.50248 74.669787 C 441.951098 77.272082 460.301647 82.708649 459.409545 88.546713 C 458.303337 95.782581 440.380997 90.964617 436.119721 89.096912 C 426.172778 84.731004 417.620488 78.3933 407.611097 74.199886 " stroke="#000000" stroke-width="0.1" stroke-opacity="1" stroke-miterlimit="10"/><path stroke-linecap="square" transform="matrix(1.31361, 0, 0, 1.313444, -4.33272, -4.433944)" fill-opacity="1" fill="#000000" fill-rule="nonzero" stroke-linejoin="miter" d="M 410.349852 83.761463 C 415.122601 88.725156 422.247526 92.644956 427.612036 97.314218 C 430.776027 100.06819 436.976139 105.284677 429.431925 105.284677 C 417.2012 105.284677 401.625089 94.670285 393.985718 86.952621 " stroke="#000000" stroke-width="0.1" stroke-opacity="1" stroke-miterlimit="10"/><path stroke-linecap="square" transform="matrix(1.31361, 0, 0, 1.313444, -4.33272, -4.433944)" fill-opacity="1" fill="#000000" fill-rule="nonzero" stroke-linejoin="miter" d="M 385.79919 90.93785 C 388.08892 94.447232 411.643401 109.710066 407.162072 113.656632 C 400.973854 119.105096 387.607185 109.716014 382.162385 106.878768 " stroke="#000000" stroke-width="0.1" stroke-opacity="1" stroke-miterlimit="10"/><path stroke-linecap="square" transform="matrix(1.31361, 0, 0, 1.313444, -4.33272, -4.433944)" fill-opacity="1" fill="#000000" fill-rule="nonzero" stroke-linejoin="miter" d="M 368.531058 104.490605 C 370.356895 105.989527 383.973354 121.228569 377.163637 121.228569 C 372.72394 121.228569 362.991102 119.711802 361.263396 116.446293 " stroke="#000000" stroke-width="0.1" stroke-opacity="1" stroke-miterlimit="10"/><path stroke-linecap="square" transform="matrix(1.31361, 0, 0, 1.313444, -4.33272, -4.433944)" fill-opacity="1" fill="#000000" fill-rule="nonzero" stroke-linejoin="miter" d="M 345.800286 114.049207 C 348.000805 117.439626 352.169898 119.640425 352.169898 123.616732 C 352.169898 127.899367 347.605306 129.627291 343.076399 129.993099 " stroke="#000000" stroke-width="0.1" stroke-opacity="1" stroke-miterlimit="10"/><path stroke-linecap="square" transform="matrix(1.31361, 0, 0, 1.313444, -4.33272, -4.433944)" fill-opacity="1" fill="#000000" fill-rule="nonzero" stroke-linejoin="miter" d="M 359.440534 136.369467 C 357.141883 135.218508 351.863609 134.906233 349.446011 135.970944 C 346.656704 137.202201 343.840634 141.493758 348.542014 142.751782 " stroke="#000000" stroke-width="0.1" stroke-opacity="1" stroke-miterlimit="10"/><path stroke-linecap="square" transform="matrix(1.31361, 0, 0, 1.313444, -4.33272, -4.433944)" fill-opacity="1" fill="#000000" fill-rule="nonzero" stroke-linejoin="miter" d="M 372.170837 124.410804 C 369.26853 125.561762 365.158911 124.354297 363.074365 126.804916 C 361.46858 128.693439 362.307156 131.65262 364.900201 132.779786 C 367.344562 133.844497 368.650005 135.515914 371.260892 136.366493 C 375.03746 137.594776 379.194658 137.166512 383.280487 137.166512 C 389.899888 137.166512 401.419906 138.942021 391.249937 131.584217 C 385.436402 127.378908 379.605025 125.20785 372.170837 125.20785 " stroke="#000000" stroke-width="0.1" stroke-opacity="1" stroke-miterlimit="10"/><path fill="#000000" d="M 560.953125 29.15625 C 551.328125 29.585938 543.832031 27.683594 534.699219 31.25 C 525.496094 34.847656 519.121094 41.765625 512.007812 48 C 517.832031 40.351562 522.871094 28.664062 532.296875 23.921875 C 535.800781 22.160156 543.199219 20.015625 547.253906 22.152344 C 550.210938 23.707031 560.515625 30.34375 560.953125 29.15625 " fill-opacity="1" fill-rule="nonzero"/><path stroke-linecap="square" transform="matrix(1.31361, 0, 0, 1.313444, -4.33272, -4.433944)" fill-opacity="1" fill="#000000" fill-rule="nonzero" stroke-linejoin="miter" d="M 94.048948 62.244198 C 75.99874 66.761783 57.21106 66.226453 38.610722 66.226453 C 33.168897 66.226453 16.626342 62.404797 12.710012 65.82793 C 8.719339 69.310545 30.230905 77.878789 32.690135 78.803719 C 49.307032 85.05815 64.570906 85.075994 82.564614 83.859607 C 92.044691 83.220186 101.14711 82.039487 110.469582 80.400785 C 117.080062 79.23793 130.990914 78.268389 135.861794 74.196912 " stroke="#000000" stroke-width="0.1" stroke-opacity="1" stroke-miterlimit="10"/><path stroke-linecap="square" transform="matrix(1.31361, 0, 0, 1.313444, -4.33272, -4.433944)" fill-opacity="1" fill="#000000" fill-rule="nonzero" stroke-linejoin="miter" d="M 159.490617 86.952621 C 138.276418 98.970764 111.165422 105.284677 86.070577 105.284677 C 80.26299 105.284677 72.302461 102.926253 67.491055 100.115774 C 60.110393 95.806373 66.268875 91.541583 72.240014 90.934876 C 86.326313 89.507331 99.913035 88.222541 114.043939 86.152601 " stroke="#000000" stroke-width="0.1" stroke-opacity="1" stroke-miterlimit="10"/><path stroke-linecap="square" transform="matrix(1.31361, 0, 0, 1.313444, -4.33272, -4.433944)" fill-opacity="1" fill="#000000" fill-rule="nonzero" stroke-linejoin="miter" d="M 163.130395 95.720126 C 154.575132 99.259247 146.602709 102.405794 137.574631 105.049726 C 133.030855 106.382102 128.600079 107.949427 124.050356 109.27288 C 121.299707 110.069926 113.238074 111.324976 111.323027 113.25811 C 104.602521 120.044896 127.82395 120.196573 131.347755 119.426293 C 134.954823 118.641143 139.894098 119.069407 143.13243 117.641862 C 146.168552 116.303539 150.498223 114.908708 154.03987 114.055155 " stroke="#000000" stroke-width="0.1" stroke-opacity="1" stroke-miterlimit="10"/><path stroke-linecap="square" transform="matrix(1.31361, 0, 0, 1.313444, -4.33272, -4.433944)" fill-opacity="1" fill="#000000" fill-rule="nonzero" stroke-linejoin="miter" d="M 192.209964 103.690585 C 184.92446 106.88769 148.595071 116.589048 156.760783 127.601962 C 161.51569 134.014017 176.984748 130.463 183.461412 128.565554 C 192.180228 126.010844 200.34594 123.236054 208.568151 119.631503 " stroke="#000000" stroke-width="0.1" stroke-opacity="1" stroke-miterlimit="10"/><path stroke-linecap="square" transform="matrix(1.31361, 0, 0, 1.313444, -4.33272, -4.433944)" fill-opacity="1" fill="#000000" fill-rule="nonzero" stroke-linejoin="miter" d="M 220.391484 122.019666 C 213.754241 124.788509 206.629315 127.337271 200.390545 130.790145 C 196.364189 133.023658 185.542985 141.151742 196.756714 141.151742 C 205.365503 141.151742 212.538008 141.514576 221.099218 138.513758 C 230.377085 135.257171 237.861825 131.408748 244.930251 125.210824 " stroke="#000000" stroke-width="0.1" stroke-opacity="1" stroke-miterlimit="10"/><path stroke-linecap="square" transform="matrix(1.31361, 0, 0, 1.313444, -4.33272, -4.433944)" fill-opacity="1" fill="#000000" fill-rule="nonzero" stroke-linejoin="miter" d="M 174.040809 38.329847 C 170.097716 41.28308 163.653762 42.041464 159.062408 44.456394 C 154.456185 46.88322 148.342309 47.594018 143.474402 49.735336 C 139.587809 51.44839 133.048697 51.846913 131.323966 55.864857 C 129.917417 59.13334 133.836721 62.244198 138.398339 62.244198 C 162.859791 62.244198 185.938483 55.835116 208.577072 47.891424 " stroke="#000000" stroke-width="0.1" stroke-opacity="1" stroke-miterlimit="10"/><path stroke-linecap="square" transform="matrix(1.31361, 0, 0, 1.313444, -4.33272, -4.433944)" fill-opacity="1" fill="#000000" fill-rule="nonzero" stroke-linejoin="miter" d="M 193.119909 58.255994 C 188.475028 61.643439 177.980929 63.9632 172.244709 65.221224 C 166.005939 66.589288 159.089171 70.193839 154.943867 74.199886 C 162.169898 78.809667 178.206928 77.269108 185.629221 73.35823 C 196.0014 67.894896 207.952601 64.373619 218.562674 59.056014 " stroke="#000000" stroke-width="0.1" stroke-opacity="1" stroke-miterlimit="10"/><path stroke-linecap="square" transform="matrix(1.31361, 0, 0, 1.313444, -4.33272, -4.433944)" fill-opacity="1" fill="#000000" fill-rule="nonzero" stroke-linejoin="miter" d="M 229.479035 61.444178 C 221.744506 66.830186 209.867647 70.045136 200.964464 73.950066 C 196.729951 75.805874 178.082034 83.009028 180.398527 88.546713 C 183.172966 95.18777 200.577886 89.659008 205.044346 87.702082 C 213.442005 84.02318 224.423787 78.931603 231.301898 73.399866 " stroke="#000000" stroke-width="0.1" stroke-opacity="1" stroke-miterlimit="10"/><path stroke-linecap="square" transform="matrix(1.31361, 0, 0, 1.313444, -4.33272, -4.433944)" fill-opacity="1" fill="#000000" fill-rule="nonzero" stroke-linejoin="miter" d="M 228.56909 82.967391 C 223.840947 87.812122 217.093678 90.860525 212.201982 95.717152 C 210.447514 97.459946 203.034142 104.487631 209.48107 104.487631 C 223.534658 104.487631 236.722908 93.343858 245.831275 85.355555 " stroke="#000000" stroke-width="0.1" stroke-opacity="1" stroke-miterlimit="10"/><path stroke-linecap="square" transform="matrix(1.31361, 0, 0, 1.313444, -4.33272, -4.433944)" fill-opacity="1" fill="#000000" fill-rule="nonzero" stroke-linejoin="miter" d="M 253.098937 90.140804 C 249.045817 98.786373 232.196974 102.563419 232.196974 112.856613 C 232.196974 115.705754 242.548337 113.156992 244.219543 112.663299 C 249.343185 111.164377 253.015674 108.559108 256.738715 105.284677 " stroke="#000000" stroke-width="0.1" stroke-opacity="1" stroke-miterlimit="10"/><path stroke-linecap="square" transform="matrix(1.31361, 0, 0, 1.313444, -4.33272, -4.433944)" fill-opacity="1" fill="#000000" fill-rule="nonzero" stroke-linejoin="miter" d="M 270.378963 103.690585 C 268.193312 106.890665 256.756557 117.555614 261.291412 120.428549 C 265.192873 122.899986 275.505579 116.880505 278.562517 115.646273 " stroke="#000000" stroke-width="0.1" stroke-opacity="1" stroke-miterlimit="10"/><path stroke-linecap="square" transform="matrix(1.31361, 0, 0, 1.313444, -4.33272, -4.433944)" fill-opacity="1" fill="#000000" fill-rule="nonzero" stroke-linejoin="miter" d="M 293.100815 113.261084 C 291.310662 116.59797 286.73715 118.709547 286.73715 122.82266 C 286.73715 126.849527 292.785605 127.810145 296.734646 129.199028 " stroke="#000000" stroke-width="0.1" stroke-opacity="1" stroke-miterlimit="10"/><path stroke-linecap="square" transform="matrix(1.31361, 0, 0, 1.313444, -4.33272, -4.433944)" fill-opacity="1" fill="#000000" fill-rule="nonzero" stroke-linejoin="miter" d="M 279.460567 135.569447 C 282.957609 134.552321 285.862889 133.270505 289.452115 134.778349 C 293.359524 136.414077 294.486547 139.397051 290.365034 141.951762 " stroke="#000000" stroke-width="0.1" stroke-opacity="1" stroke-miterlimit="10"/><path stroke-linecap="square" transform="matrix(1.31361, 0, 0, 1.313444, -4.33272, -4.433944)" fill-opacity="1" fill="#000000" fill-rule="nonzero" stroke-linejoin="miter" d="M 266.730264 123.619706 C 275.008975 122.328968 280.459722 127.030944 274.006847 132.387211 C 268.686942 136.806652 262.929907 136.372441 255.82877 136.372441 C 248.709792 136.372441 237.787483 137.2825 248.213188 130.421363 C 254.374643 126.36773 259.997863 124.413778 267.640208 124.413778 " stroke="#000000" stroke-width="0.1" stroke-opacity="1" stroke-miterlimit="10"/><path fill="#000000" d="M 269.648438 28.105469 C 278.828125 28.105469 288.277344 25.539062 297.105469 29.160156 C 305.753906 32.703125 312.796875 40.597656 318.589844 46.957031 C 314.234375 39.3125 307.511719 28.046875 299.492188 22.875 C 289.28125 16.28125 278.953125 23.445312 269.648438 28.105469 " fill-opacity="1" fill-rule="nonzero"/><path fill="#000000" d="M 337.707031 308.703125 C 334.679688 286.503906 377.058594 280.765625 394.894531 279.941406 C 426.945312 278.464844 458.671875 276.734375 490.605469 273.933594 C 516.867188 271.625 546.507812 263.582031 564.527344 246.203125 C 582.011719 229.335938 565.957031 195.074219 542.957031 187.484375 C 517.582031 179.121094 493 171.347656 467.613281 184.074219 C 463.230469 186.269531 454.9375 188.757812 453.203125 193.304688 C 451.152344 198.691406 459.722656 202.296875 465 203.070312 C 478.910156 205.101562 492.089844 205.25 506.128906 204.375 C 518 203.632812 536.65625 206.644531 538.691406 219.148438 C 540.917969 232.882812 529.132812 241.976562 515.792969 246.652344 C 504.199219 250.714844 487.277344 250.449219 474.863281 252.152344 C 461.214844 254.023438 447.621094 255.09375 433.878906 256.296875 C 421.449219 257.386719 408.632812 256.476562 396.199219 257.398438 C 382.824219 258.386719 370.203125 259.035156 356.886719 261.367188 C 328.910156 266.261719 303.078125 284.441406 303.078125 310.792969 C 314.625 310.097656 326.164062 309.398438 337.707031 308.703125 " fill-opacity="1" fill-rule="nonzero"/><path stroke-linecap="square" transform="matrix(1.31361, 0, 0, 1.313444, -4.33272, -4.433944)" fill-opacity="1" fill="#000000" fill-rule="nonzero" stroke-linejoin="miter" d="M 260.381467 238.409186 C 258.076869 221.507649 290.338271 217.138767 303.916071 216.511242 C 328.315076 215.387051 352.467265 214.069546 376.77706 211.93715 C 396.769078 210.179486 419.333325 204.055913 433.050888 190.824356 C 446.361058 177.9824 434.139253 151.896991 416.630254 146.118409 C 397.31326 139.750964 378.599923 133.8326 359.274008 143.522061 C 355.937544 145.193478 349.624432 147.087949 348.30412 150.549746 C 346.742941 154.650963 353.267184 157.396013 357.284619 157.984876 C 367.873876 159.531382 377.907056 159.644396 388.594445 158.978209 C 397.631443 158.413139 411.833716 160.706133 413.383001 170.226073 C 415.077996 180.682839 406.106418 187.606432 395.951317 191.166372 C 387.125449 194.259386 374.243488 194.057151 364.793149 195.353837 C 354.403128 196.778408 344.054738 197.593298 333.593349 198.509306 C 324.131115 199.339067 314.374487 198.646113 304.909279 199.347989 C 294.727415 200.100424 285.119471 200.594117 274.982212 202.369626 C 253.684751 206.096112 234.019837 219.93735 234.019837 240.000304 " stroke="#000000" stroke-width="0.1" stroke-opacity="1" stroke-miterlimit="10"/><path fill="#000000" d="M 395.019531 314.96875 C 393.027344 233.65625 391.035156 152.339844 389.046875 71.023438 C 405.761719 71.371094 422.472656 71.722656 439.1875 72.074219 C 437.523438 120.320312 435.855469 168.566406 434.1875 216.8125 C 433.238281 244.226562 432.296875 271.640625 431.347656 299.054688 C 431.175781 303.972656 431.007812 308.890625 430.839844 313.8125 C 430.820312 314.351562 398.542969 314.867188 395.019531 314.964844 " fill-opacity="1" fill-rule="nonzero"/><path stroke-linecap="square" transform="matrix(1.31361, 0, 0, 1.313444, -4.33272, -4.433944)" fill-opacity="1" fill="#000000" fill-rule="nonzero" stroke-linejoin="miter" d="M 304.011229 243.179565 C 302.494655 181.271702 300.97808 119.360864 299.46448 57.450026 C 312.188835 57.714717 324.910218 57.982382 337.634574 58.250046 C 335.514343 119.625555 333.397087 181.009985 331.276856 242.379545 " stroke="#000000" stroke-width="0.1" stroke-opacity="1" stroke-miterlimit="10"/><path fill="#000000" d="M 428.4375 395.589844 C 426.683594 451.75 424.925781 507.914062 423.175781 564.078125 C 422.539062 584.335938 421.910156 604.589844 421.277344 624.847656 C 421.203125 627.113281 405.957031 625.445312 404.605469 625.148438 C 402.488281 624.679688 403.304688 622.5 403.257812 620.726562 C 402.992188 610.507812 402.722656 600.285156 402.457031 590.066406 C 401.25 543.976562 400.046875 497.886719 398.839844 451.796875 C 398.414062 435.542969 397.992188 419.285156 397.566406 403.027344 C 397.550781 402.40625 397.050781 396.648438 397.671875 396.628906 C 407.929688 396.285156 418.179688 395.9375 428.4375 395.589844 " fill-opacity="1" fill-rule="nonzero"/><path fill="#000000" d="M 428.4375 395.589844 C 426.683594 451.75 424.925781 507.914062 423.175781 564.078125 C 422.539062 584.335938 421.910156 604.589844 421.277344 624.847656 C 421.203125 627.113281 405.957031 625.445312 404.605469 625.148438 C 402.488281 624.679688 403.304688 622.5 403.257812 620.726562 C 402.992188 610.507812 402.722656 600.285156 402.457031 590.066406 C 400.773438 525.589844 399.085938 461.113281 397.398438 396.632812 " fill-opacity="1" fill-rule="nonzero"/><g clip-path="url(#8012f222ce)"><path stroke-linecap="square" transform="matrix(1.31361, 0, 0, 1.313444, -4.33272, -4.433944)" fill="none" stroke-linejoin="miter" d="M 329.45102 304.561022 C 328.11584 347.318965 326.777686 390.079883 325.445479 432.840801 C 324.96077 448.264233 324.482009 463.684692 324.000273 479.108125 C 323.943773 480.833075 312.337519 479.563155 311.308628 479.337127 C 309.696896 478.980241 310.318394 477.32072 310.28271 475.970501 C 310.0805 468.190381 309.875316 460.407287 309.673106 452.627168 C 308.391452 403.537468 307.106825 354.447767 305.822197 305.355093 " stroke="#000000" stroke-width="0.1" stroke-opacity="1" stroke-miterlimit="10"/></g><path stroke-linecap="square" transform="matrix(1.31361, 0, 0, 1.313444, -4.33272, -4.433944)" fill-opacity="1" fill="#000000" fill-rule="nonzero" stroke-linejoin="miter" d="M 299.458532 69.414637 C 310.392736 75.163479 325.42169 76.082461 336.718682 70.214657 " stroke="#000000" stroke-width="0.1" stroke-opacity="1" stroke-miterlimit="10"/><g clip-path="url(#cc197d4920)"><path fill="#000000" d="M 414.105469 79.410156 C 438.921875 79.410156 459.476562 62.996094 459.476562 40.671875 C 459.476562 16.558594 437.933594 0.882812 411.585938 0.882812 C 388.367188 0.882812 365.160156 21.761719 369.160156 42.882812 C 370.976562 52.464844 373.558594 64.5625 383.972656 70.042969 C 389.023438 72.707031 409.808594 84.886719 414.105469 79.40625 " fill-opacity="1" fill-rule="nonzero"/><path fill="#000000" d="M 414.105469 79.410156 C 438.921875 79.410156 459.476562 62.996094 459.476562 40.671875 C 459.476562 17.761719 439.066406 0.882812 413.363281 0.882812 C 389.199219 0.882812 368.261719 18.902344 368.742188 40.671875 C 369.265625 64.484375 389.769531 76.894531 414.105469 80.457031 " fill-opacity="1" fill-rule="nonzero"/></g><g clip-path="url(#0b68773350)"><path stroke-linecap="square" transform="matrix(1.31361, 0, 0, 1.313444, -4.33272, -4.433944)" fill="none" stroke-linejoin="miter" d="M 318.540606 63.835316 C 337.432364 63.835316 353.079842 51.33835 353.079842 34.341643 C 353.079842 16.898829 337.54239 4.047951 317.975607 4.047951 C 299.580453 4.047951 283.641554 17.767252 284.007316 34.341643 C 284.405789 52.471464 300.014609 61.920026 318.540606 64.632362 " stroke="#000000" stroke-width="0.1" stroke-opacity="1" stroke-miterlimit="10"/></g><path fill="#000000" d="M 443.949219 505.523438 C 457.898438 490.335938 460.335938 467.117188 446.34375 451.074219 C 430.0625 432.40625 401.402344 429.21875 384 411.785156 C 374.105469 401.867188 366.417969 391.519531 381.863281 381.980469 C 394.132812 374.398438 410.214844 372.742188 424.417969 370.148438 C 450.300781 365.425781 477.648438 360.847656 499.222656 346.671875 C 511.035156 338.914062 520.265625 330.519531 525.335938 318.070312 C 530.851562 304.511719 526.195312 294.878906 518.703125 282.660156 C 507.222656 263.9375 468.554688 256.347656 446.589844 256.347656 C 421.65625 256.347656 394.070312 256.351562 369.339844 252.960938 C 354.234375 250.886719 339.171875 248.464844 323.941406 247.25 C 311.414062 246.25 297.476562 238.65625 293.867188 227.59375 C 283.203125 194.902344 337.886719 206.0625 356.660156 203.320312 C 365.742188 201.996094 388.144531 198.160156 374.703125 187.25 C 367.019531 181.011719 349.078125 175.730469 338.75 175.730469 C 311.753906 175.730469 285.382812 183.554688 268.558594 202.53125 C 260.566406 211.542969 256.742188 223.480469 260.886719 234.367188 C 265.984375 247.761719 276.621094 253.671875 290.308594 259.988281 C 341.292969 283.523438 404.941406 269.558594 458.871094 282 C 468.847656 284.296875 490.152344 288.601562 491.785156 299.890625 C 493.902344 314.542969 484.378906 322.082031 471.898438 330.585938 C 450.429688 345.210938 416.410156 346.53125 390.726562 351.308594 C 374.261719 354.367188 348.460938 363.628906 341.007812 378.316406 C 331.777344 396.515625 337.011719 416.90625 357.125 428.238281 C 373.613281 437.527344 390.402344 446.121094 406.941406 455.273438 C 415.089844 459.78125 419.003906 464.773438 425.445312 470.449219 C 429.414062 473.949219 425.089844 492.074219 424.851562 497.152344 C 429.777344 497.464844 443.296875 506.019531 443.949219 505.527344 " fill-opacity="1" fill-rule="nonzero"/><path stroke-linecap="square" transform="matrix(1.31361, 0, 0, 1.313444, -4.33272, -4.433944)" fill-opacity="1" fill="#000000" fill-rule="nonzero" stroke-linejoin="miter" d="M 341.259484 388.259763 C 351.878478 376.696649 353.734051 359.018885 343.082347 346.804454 C 330.688069 332.59146 308.870214 330.164634 295.622491 316.891441 C 288.090172 309.340323 282.237979 301.46206 293.995891 294.199425 C 303.336205 288.42679 315.578825 287.165792 326.391108 285.191022 C 346.094679 281.595393 366.913379 278.109804 383.336987 267.31697 C 392.329381 261.410503 399.356175 255.019266 403.216005 245.540962 C 407.414835 235.218028 403.870214 227.884016 398.166705 218.581182 C 389.427074 204.326552 359.990663 198.547969 343.269688 198.547969 C 324.28872 198.547969 303.288626 198.550943 284.462288 195.969466 C 272.963087 194.390244 261.496595 192.546332 249.902236 191.621402 C 240.36566 190.860045 229.755587 185.078488 227.007911 176.655973 C 218.889778 151.766133 260.518256 160.262999 274.809739 158.175215 C 281.723534 157.167011 298.777561 154.246492 288.545144 145.939965 C 282.695925 141.190405 269.037835 137.169487 261.175438 137.169487 C 240.624369 137.169487 220.549089 143.126512 207.74147 157.574456 C 201.65733 164.435594 198.746102 173.524296 201.901172 181.812979 C 205.781818 192.011003 213.879135 196.510743 224.298893 201.319785 C 263.111301 219.238448 311.564364 208.606212 352.618923 218.078567 C 360.213689 219.82731 376.432113 223.104715 377.67511 231.699725 C 379.286841 242.855394 372.037021 248.595314 362.536129 255.069825 C 346.192811 266.204675 320.295074 267.209904 300.74316 270.84717 C 288.209119 273.175852 268.567995 280.227329 262.894223 291.409764 C 255.867428 305.265872 259.852153 320.790423 275.163606 329.418147 C 287.715489 336.490442 300.496345 343.033356 313.086885 350.00156 C 319.289972 353.433616 322.269594 357.234454 327.173185 361.555751 C 330.194438 364.220502 326.90258 378.020103 326.721186 381.88637 C 331.86267 382.207568 337.488864 385.910262 341.259484 389.056809 " stroke="#000000" stroke-width="0.1" stroke-opacity="1" stroke-miterlimit="10"/><path fill="#000000" d="M 422.460938 614.410156 C 428.742188 617.328125 436.789062 610.757812 436.789062 605.222656 C 436.789062 597.839844 435.554688 593.109375 428.171875 588.777344 C 415.546875 581.363281 403.609375 575.921875 392.617188 566.246094 C 389.660156 571.144531 385.457031 577.449219 385.457031 582.960938 C 385.457031 590.714844 387.242188 592.6875 391.996094 598.941406 C 393.824219 601.34375 403.660156 604.59375 406.945312 606.039062 C 412.089844 608.289062 417.167969 611.316406 422.460938 614.410156 " fill-opacity="1" fill-rule="nonzero"/><path stroke-linecap="square" transform="matrix(1.31361, 0, 0, 1.313444, -4.33272, -4.433944)" fill-opacity="1" fill="#000000" fill-rule="nonzero" stroke-linejoin="miter" d="M 324.901297 471.161459 C 329.682966 473.383076 335.808737 468.38072 335.808737 464.166489 C 335.808737 458.545531 334.869056 454.943954 329.24881 451.64573 C 319.637892 446.00098 310.55034 441.858126 302.182419 434.491399 C 299.931347 438.22086 296.731672 443.02098 296.731672 447.217367 C 296.731672 453.12086 298.090642 454.622756 301.709604 459.384213 C 303.101284 461.213255 310.588998 463.687666 313.089859 464.788066 C 317.006189 466.50112 320.871967 468.80601 324.901297 471.161459 " stroke="#000000" stroke-width="0.1" stroke-opacity="1" stroke-miterlimit="10"/><path fill="#000000" d="M 341.292969 185.148438 C 341.792969 185.800781 340.824219 186.550781 342.480469 186.199219 C 348.324219 180.601562 333.296875 182.242188 340.089844 186.199219 C 341.605469 186.523438 340.957031 185.921875 341.292969 185.148438 " fill-opacity="1" fill-rule="nonzero"/><path fill="#000000" d="M 494.105469 187.25 C 498.847656 187.792969 498.238281 184.398438 495.292969 184.105469 C 492.21875 183.800781 489.71875 186.910156 494.105469 187.25 " fill-opacity="1" fill-rule="nonzero"/><path fill="#000000" d="M 445.160156 41.722656 C 451.953125 51.78125 432.261719 66.59375 423.65625 69.988281 C 433.046875 68.855469 436.796875 64.757812 443.023438 59.289062 C 446.285156 56.421875 450.109375 43.691406 445.160156 41.722656 " fill-opacity="1" fill-rule="nonzero"/><path fill="#000000" d="M 397.394531 396.640625 C 396.785156 375.8125 396.175781 354.984375 395.566406 334.160156 C 395.507812 332.09375 393.894531 315.007812 395.917969 314.949219 C 407.554688 314.609375 419.191406 314.269531 430.820312 313.933594 C 430.234375 334.09375 429.640625 354.253906 429.054688 374.421875 C 428.953125 377.914062 431.191406 392.878906 428.433594 395.59375 C 426.945312 397.058594 415.140625 396.042969 412.914062 396.117188 C 407.742188 396.292969 402.570312 396.464844 397.394531 396.640625 " fill-opacity="1" fill-rule="nonzero"/><path stroke-linecap="square" transform="matrix(1.31361, 0, 0, 1.313444, -4.33272, -4.433944)" fill-opacity="1" fill="#000000" fill-rule="nonzero" stroke-linejoin="miter" d="M 331.270909 241.591421 L 329.45102 304.561022 " stroke="#000000" stroke-width="0.1" stroke-opacity="1" stroke-miterlimit="10"/><path stroke-linecap="square" transform="matrix(1.31361, 0, 0, 1.313444, -4.33272, -4.433944)" fill-opacity="1" fill="#000000" fill-rule="nonzero" stroke-linejoin="miter" d="M 305.819223 305.361041 L 304.011229 243.179565 " stroke="#000000" stroke-width="0.1" stroke-opacity="1" stroke-miterlimit="10"/><path fill="#000000" d="M 495.300781 394.539062 C 486.875 357.507812 439.609375 350.730469 403.375 345.332031 C 383.476562 342.367188 368.351562 338.347656 352.316406 327.109375 C 350.179688 325.609375 336.566406 308.761719 337.464844 308.707031 C 326.003906 309.398438 314.542969 310.085938 303.085938 310.78125 C 306.019531 319.773438 308.179688 326.976562 315.257812 334.222656 C 322.164062 341.300781 329.59375 346.515625 338.417969 351.671875 C 355.007812 361.378906 376.875 366.097656 396.191406 369.273438 C 413.011719 372.046875 434.640625 373.214844 448.746094 382.5 C 452.140625 384.730469 455.996094 386.351562 457.421875 390.117188 C 458.820312 393.824219 458.273438 395.585938 462.890625 395.585938 C 467.898438 395.589844 494.027344 397.734375 495.296875 394.539062 " fill-opacity="1" fill-rule="nonzero"/><path stroke-linecap="square" transform="matrix(1.31361, 0, 0, 1.313444, -4.33272, -4.433944)" fill-opacity="1" fill="#000000" fill-rule="nonzero" stroke-linejoin="miter" d="M 234.019837 240.000304 C 237.719089 251.346312 243.012231 259.801541 254.017802 267.099864 C 264.265087 273.892599 277.191653 278.380443 289.461036 281.449665 C 308.650162 286.252758 345.615918 284.85198 353.079842 304.56697 " stroke="#000000" stroke-width="0.1" stroke-opacity="1" stroke-miterlimit="10"/><path stroke-linecap="square" transform="matrix(1.31361, 0, 0, 1.313444, -4.33272, -4.433944)" fill-opacity="1" fill="#000000" fill-rule="nonzero" stroke-linejoin="miter" d="M 380.351417 303.761002 C 368.667848 252.411022 280.959299 283.641541 260.390388 238.400264 " stroke="#000000" stroke-width="0.1" stroke-opacity="1" stroke-miterlimit="10"/><path fill="#000000" d="M 423.65625 533.789062 C 430.710938 525.605469 401.191406 519.921875 395.011719 517.039062 C 385.988281 512.828125 372.496094 504.292969 370.707031 494.9375 C 369.527344 488.765625 374.277344 488.882812 380.433594 486.074219 C 386.878906 483.132812 393.328125 480.195312 399.773438 477.253906 C 395.3125 488.074219 405.363281 490.394531 415.035156 493.226562 C 425.292969 496.230469 433.324219 500.855469 442.761719 504.996094 C 450.167969 508.246094 455.050781 520.332031 454.699219 527.511719 C 454.351562 534.539062 450.179688 532.863281 442.9375 533.128906 C 436.515625 533.363281 430.082031 533.710938 423.65625 533.789062 " fill-opacity="1" fill-rule="nonzero"/><path stroke-linecap="square" transform="matrix(1.31361, 0, 0, 1.313444, -4.33272, -4.433944)" fill-opacity="1" fill="#000000" fill-rule="nonzero" stroke-linejoin="miter" d="M 348.53904 408.979982 C 355.110863 398.808725 341.2238 388.482817 333.090798 384.268586 C 327.060185 381.142857 321.517254 379.878885 314.912722 377.895192 C 308.507426 375.968007 305.218541 372.592458 307.633165 366.733576 " stroke="#000000" stroke-width="0.1" stroke-opacity="1" stroke-miterlimit="10"/><path stroke-linecap="square" transform="matrix(1.31361, 0, 0, 1.313444, -4.33272, -4.433944)" fill-opacity="1" fill="#000000" fill-rule="nonzero" stroke-linejoin="miter" d="M 325.811241 409.780002 C 329.635388 405.342717 317.131084 400.215452 312.634887 400.215452 C 300.793712 400.215452 286.633071 386.100601 284.914287 377.101121 " stroke="#000000" stroke-width="0.1" stroke-opacity="1" stroke-miterlimit="10"/><path fill="#000000" d="M 375.90625 546.359375 C 379.738281 568.007812 410.730469 581.515625 430.832031 590.335938 C 432.605469 584.644531 436.796875 582.238281 436.796875 575.445312 C 436.796875 567.546875 426.796875 563.128906 420.078125 559.96875 C 413.171875 556.722656 408.175781 551.152344 402.171875 547.410156 C 398.617188 545.195312 397.90625 545.4375 392.15625 545.679688 C 386.742188 545.90625 381.320312 546.132812 375.902344 546.359375 " fill-opacity="1" fill-rule="nonzero"/><path stroke-linecap="square" transform="matrix(1.31361, 0, 0, 1.313444, -4.33272, -4.433944)" fill-opacity="1" fill="#000000" fill-rule="nonzero" stroke-linejoin="miter" d="M 289.461036 419.350501 C 292.378212 435.832697 315.97135 446.116968 331.273883 452.832377 C 332.136248 450.060561 335.814685 448.231519 335.814685 445.034413 C 335.814685 439.687068 334.687662 437.492218 330.360964 433.697327 C 323.851589 427.984174 312.156125 426.827268 308.549057 418.550481 " stroke="#000000" stroke-width="0.1" stroke-opacity="1" stroke-miterlimit="10"/></g></g></g></g><g clip-path="url(#b0d5fa3fac)"><path fill="#050607" d="M 1065.867188 1137.203125 L 1035.324219 1137.203125 C 1034.289062 1137.203125 1033.449219 1136.363281 1033.449219 1135.328125 L 1033.449219 1094.734375 C 1033.449219 1093.699219 1034.289062 1092.855469 1035.324219 1092.855469 L 1065.867188 1092.855469 C 1066.902344 1092.855469 1067.742188 1093.699219 1067.742188 1094.734375 L 1067.742188 1135.328125 C 1067.742188 1136.363281 1066.902344 1137.203125 1065.867188 1137.203125 Z M 1035.324219 1093.941406 C 1034.886719 1093.941406 1034.53125 1094.296875 1034.53125 1094.734375 L 1034.53125 1135.328125 C 1034.53125 1135.765625 1034.886719 1136.121094 1035.324219 1136.121094 L 1065.867188 1136.121094 C 1066.304688 1136.121094 1066.660156 1135.765625 1066.660156 1135.328125 L 1066.660156 1094.734375 C 1066.660156 1094.296875 1066.304688 1093.941406 1065.867188 1093.941406 Z M 1035.324219 1093.941406 " fill-opacity="1" fill-rule="nonzero"/></g><g clip-path="url(#87e2203d71)"><path fill="#050607" d="M 1061.320312 1096.527344 L 1039.867188 1096.527344 L 1039.871094 1095.984375 C 1039.894531 1093.113281 1042.226562 1091.988281 1044.378906 1091.863281 L 1044.378906 1088.261719 L 1056.808594 1088.261719 L 1056.808594 1091.863281 C 1058.960938 1091.988281 1061.296875 1093.113281 1061.316406 1095.984375 Z M 1041 1095.445312 L 1060.191406 1095.445312 C 1059.824219 1093.125 1057.238281 1092.933594 1056.40625 1092.933594 C 1056.339844 1092.933594 1056.300781 1092.9375 1056.292969 1092.9375 L 1055.726562 1092.964844 L 1055.726562 1089.347656 L 1045.460938 1089.347656 L 1045.460938 1092.964844 L 1044.894531 1092.9375 C 1044.886719 1092.9375 1044.847656 1092.933594 1044.785156 1092.933594 C 1043.953125 1092.933594 1041.367188 1093.125 1041 1095.445312 Z M 1041 1095.445312 " fill-opacity="1" fill-rule="nonzero"/></g><path fill="#050607" d="M 1062.445312 1102.765625 L 1039.914062 1102.765625 C 1039.613281 1102.765625 1039.371094 1102.523438 1039.371094 1102.222656 C 1039.371094 1101.925781 1039.613281 1101.683594 1039.914062 1101.683594 L 1062.445312 1101.683594 C 1062.742188 1101.683594 1062.984375 1101.925781 1062.984375 1102.222656 C 1062.984375 1102.523438 1062.742188 1102.765625 1062.445312 1102.765625 Z M 1062.445312 1102.765625 " fill-opacity="1" fill-rule="nonzero"/><path fill="#050607" d="M 1062.445312 1110.503906 L 1039.914062 1110.503906 C 1039.613281 1110.503906 1039.371094 1110.261719 1039.371094 1109.964844 C 1039.371094 1109.664062 1039.613281 1109.421875 1039.914062 1109.421875 L 1062.445312 1109.421875 C 1062.742188 1109.421875 1062.984375 1109.664062 1062.984375 1109.964844 C 1062.984375 1110.261719 1062.742188 1110.503906 1062.445312 1110.503906 Z M 1062.445312 1110.503906 " fill-opacity="1" fill-rule="nonzero"/><path fill="#050607" d="M 1062.445312 1118.246094 L 1039.914062 1118.246094 C 1039.613281 1118.246094 1039.371094 1118.003906 1039.371094 1117.703125 C 1039.371094 1117.402344 1039.613281 1117.160156 1039.914062 1117.160156 L 1062.445312 1117.160156 C 1062.742188 1117.160156 1062.984375 1117.402344 1062.984375 1117.703125 C 1062.984375 1118.003906 1062.742188 1118.246094 1062.445312 1118.246094 Z M 1062.445312 1118.246094 " fill-opacity="1" fill-rule="nonzero"/><path fill="#050607" d="M 1062.445312 1125.984375 L 1039.914062 1125.984375 C 1039.613281 1125.984375 1039.371094 1125.742188 1039.371094 1125.441406 C 1039.371094 1125.144531 1039.613281 1124.902344 1039.914062 1124.902344 L 1062.445312 1124.902344 C 1062.742188 1124.902344 1062.984375 1125.144531 1062.984375 1125.441406 C 1062.984375 1125.742188 1062.742188 1125.984375 1062.445312 1125.984375 Z M 1062.445312 1125.984375 " fill-opacity="1" fill-rule="nonzero"/><path fill="#050607" d="M 1054.265625 1094.105469 L 1046.675781 1094.105469 L 1046.675781 1090.808594 C 1046.675781 1090.507812 1046.917969 1090.265625 1047.214844 1090.265625 C 1047.515625 1090.265625 1047.757812 1090.507812 1047.757812 1090.808594 L 1047.757812 1093.023438 L 1053.183594 1093.023438 L 1053.183594 1090.808594 C 1053.183594 1090.507812 1053.425781 1090.265625 1053.722656 1090.265625 C 1054.023438 1090.265625 1054.265625 1090.507812 1054.265625 1090.808594 Z M 1054.265625 1094.105469 " fill-opacity="1" fill-rule="nonzero"/><path fill="#ffffff" d="M 1081.382812 1114.800781 C 1081.382812 1114.800781 1076.011719 1115.90625 1071.050781 1112.734375 C 1066.09375 1115.90625 1060.722656 1114.800781 1060.722656 1114.800781 C 1060.722656 1114.800781 1060.453125 1125.617188 1061.003906 1129.339844 C 1061.554688 1133.058594 1071.050781 1137.960938 1071.050781 1137.960938 C 1071.050781 1137.960938 1080.550781 1133.058594 1081.101562 1129.339844 C 1081.652344 1125.617188 1081.382812 1114.800781 1081.382812 1114.800781 Z M 1081.382812 1114.800781 " fill-opacity="1" fill-rule="nonzero"/><g clip-path="url(#665bb7cd2e)"><path fill="#050607" d="M 1071.050781 1138.503906 C 1070.96875 1138.503906 1070.882812 1138.484375 1070.804688 1138.441406 C 1069.804688 1137.925781 1061.042969 1133.300781 1060.46875 1129.417969 C 1059.917969 1125.691406 1060.171875 1115.230469 1060.179688 1114.789062 C 1060.183594 1114.628906 1060.261719 1114.476562 1060.386719 1114.375 C 1060.511719 1114.277344 1060.675781 1114.238281 1060.832031 1114.269531 C 1060.839844 1114.273438 1061.707031 1114.445312 1063.035156 1114.445312 C 1065.011719 1114.445312 1067.957031 1114.070312 1070.761719 1112.277344 C 1070.9375 1112.164062 1071.164062 1112.164062 1071.34375 1112.277344 C 1074.144531 1114.070312 1077.089844 1114.445312 1079.070312 1114.445312 C 1080.394531 1114.445312 1081.265625 1114.273438 1081.273438 1114.269531 C 1081.429688 1114.238281 1081.59375 1114.277344 1081.71875 1114.378906 C 1081.84375 1114.476562 1081.917969 1114.628906 1081.921875 1114.789062 C 1081.933594 1115.230469 1082.1875 1125.691406 1081.636719 1129.417969 C 1081.058594 1133.300781 1072.296875 1137.925781 1071.300781 1138.441406 C 1071.222656 1138.484375 1071.136719 1138.503906 1071.050781 1138.503906 Z M 1061.25 1115.429688 C 1061.203125 1117.765625 1061.078125 1126.132812 1061.539062 1129.257812 C 1061.945312 1132 1068.316406 1135.902344 1071.050781 1137.347656 C 1073.785156 1135.902344 1080.160156 1132 1080.566406 1129.257812 C 1081.027344 1126.132812 1080.898438 1117.765625 1080.855469 1115.429688 C 1080.433594 1115.476562 1079.820312 1115.527344 1079.070312 1115.527344 C 1077.015625 1115.527344 1073.984375 1115.148438 1071.050781 1113.371094 C 1068.117188 1115.148438 1065.089844 1115.527344 1063.035156 1115.527344 C 1062.285156 1115.527344 1061.671875 1115.476562 1061.25 1115.429688 Z M 1061.25 1115.429688 " fill-opacity="1" fill-rule="nonzero"/></g><path fill="#050607" d="M 1073.488281 1132.390625 L 1068.617188 1132.390625 L 1068.617188 1127.785156 L 1064.011719 1127.785156 L 1064.011719 1122.910156 L 1068.617188 1122.910156 L 1068.617188 1118.300781 L 1073.488281 1118.300781 L 1073.488281 1122.910156 L 1078.089844 1122.910156 L 1078.089844 1127.785156 L 1073.488281 1127.785156 Z M 1069.699219 1131.308594 L 1072.402344 1131.308594 L 1072.402344 1126.699219 L 1077.007812 1126.699219 L 1077.007812 1123.992188 L 1072.402344 1123.992188 L 1072.402344 1119.386719 L 1069.699219 1119.386719 L 1069.699219 1123.992188 L 1065.097656 1123.992188 L 1065.097656 1126.699219 L 1069.699219 1126.699219 Z M 1069.699219 1131.308594 " fill-opacity="1" fill-rule="nonzero"/><g fill="#545454" fill-opacity="1"><g transform="translate(417.863253, 387.477369)"><g><path d="M 28.03125 0.3125 C 19.582031 0.3125 13.117188 -1.632812 8.640625 -5.53125 C 4.160156 -9.4375 1.921875 -15.226562 1.921875 -22.90625 C 1.921875 -30.550781 4.160156 -36.332031 8.640625 -40.25 C 13.117188 -44.175781 19.582031 -46.117188 28.03125 -46.078125 L 51.078125 -45.953125 L 51.078125 -37.765625 L 28.734375 -37.765625 C 23.191406 -37.765625 19.078125 -36.585938 16.390625 -34.234375 C 13.703125 -31.890625 12.359375 -28.113281 12.359375 -22.90625 C 12.359375 -17.707031 13.703125 -13.921875 16.390625 -11.546875 C 19.078125 -9.179688 23.191406 -8 28.734375 -8 L 51.71875 -8 L 51.71875 0.3125 Z M 28.03125 0.3125 "/></g></g></g><g fill="#545454" fill-opacity="1"><g transform="translate(471.491957, 387.477369)"><g><path d="M 20.421875 0.3125 C 14.703125 0.3125 10.238281 -1.101562 7.03125 -3.9375 C 3.832031 -6.769531 2.234375 -10.941406 2.234375 -16.453125 C 2.234375 -21.992188 3.832031 -26.179688 7.03125 -29.015625 C 10.238281 -31.859375 14.703125 -33.28125 20.421875 -33.28125 L 32.25 -33.28125 C 37.96875 -33.28125 42.425781 -31.859375 45.625 -29.015625 C 48.832031 -26.179688 50.4375 -21.992188 50.4375 -16.453125 C 50.4375 -10.941406 48.832031 -6.769531 45.625 -3.9375 C 42.425781 -1.101562 37.96875 0.3125 32.25 0.3125 Z M 20.421875 -7.046875 L 32.25 -7.046875 C 35.03125 -7.046875 37.15625 -7.8125 38.625 -9.34375 C 40.09375 -10.875 40.828125 -13.242188 40.828125 -16.453125 C 40.828125 -19.691406 40.09375 -22.078125 38.625 -23.609375 C 37.15625 -25.148438 35.03125 -25.921875 32.25 -25.921875 L 20.421875 -25.921875 C 17.640625 -25.921875 15.515625 -25.148438 14.046875 -23.609375 C 12.578125 -22.078125 11.84375 -19.691406 11.84375 -16.453125 C 11.84375 -13.242188 12.578125 -10.875 14.046875 -9.34375 C 15.515625 -7.8125 17.640625 -7.046875 20.421875 -7.046875 Z M 20.421875 -7.046875 "/></g></g></g><g fill="#545454" fill-opacity="1"><g transform="translate(523.520742, 387.477369)"><g><path d="M 14.53125 0 L 0.640625 -32.953125 L 10.375 -32.953125 L 21.125 -7.421875 L 24.3125 -7.421875 L 35.078125 -32.953125 L 44.796875 -32.953125 L 30.90625 0 Z M 14.53125 0 "/></g></g></g><g fill="#545454" fill-opacity="1"><g transform="translate(568.317971, 387.477369)"><g><path d="M 20.421875 0.3125 C 14.703125 0.3125 10.238281 -1.101562 7.03125 -3.9375 C 3.832031 -6.769531 2.234375 -10.941406 2.234375 -16.453125 C 2.234375 -21.992188 3.832031 -26.179688 7.03125 -29.015625 C 10.238281 -31.859375 14.703125 -33.28125 20.421875 -33.28125 L 36.421875 -33.28125 C 40.171875 -33.28125 43.035156 -32.394531 45.015625 -30.625 C 47.003906 -28.851562 48 -26.328125 48 -23.046875 C 48 -16.335938 44.140625 -12.984375 36.421875 -12.984375 L 12.21875 -12.984375 C 13.113281 -9.023438 15.847656 -7.046875 20.421875 -7.046875 L 46.328125 -7.046875 L 46.328125 0.3125 Z M 20.421875 -25.921875 C 16.023438 -25.921875 13.3125 -24.066406 12.28125 -20.359375 L 35.96875 -20.359375 C 36.820312 -20.359375 37.492188 -20.613281 37.984375 -21.125 C 38.472656 -21.632812 38.71875 -22.335938 38.71875 -23.234375 C 38.71875 -25.023438 37.800781 -25.921875 35.96875 -25.921875 Z M 20.421875 -25.921875 "/></g></g></g><g fill="#545454" fill-opacity="1"><g transform="translate(618.554886, 387.477369)"><g><path d="M 3.515625 0 L 3.515625 -32.953125 L 28.734375 -32.953125 C 32.441406 -32.953125 35.171875 -32.023438 36.921875 -30.171875 C 38.671875 -28.316406 39.546875 -25.875 39.546875 -22.84375 L 39.546875 -16 L 30.140625 -16 L 30.140625 -21.703125 C 30.140625 -24.253906 28.859375 -25.53125 26.296875 -25.53125 L 12.921875 -25.53125 L 12.921875 0 Z M 3.515625 0 "/></g></g></g><g fill="#545454" fill-opacity="1"><g transform="translate(659.704358, 387.477369)"><g><path d="M 4.484375 0 L 4.484375 -45.765625 L 13.0625 -45.765625 L 34.234375 -30.90625 L 34.5625 -30.90625 L 55.75 -45.765625 L 64.3125 -45.765625 L 64.3125 0 L 54.078125 0 L 54.078125 -32.953125 L 39.546875 -23.234375 L 39.546875 0 L 29.3125 0 L 29.3125 -23.234375 L 14.71875 -32.953125 L 14.71875 0 Z M 4.484375 0 "/></g></g></g><g fill="#545454" fill-opacity="1"><g transform="translate(728.500144, 387.477369)"><g><path d="M 10.9375 14.40625 L 10.9375 7.046875 L 30.265625 7.046875 C 32.828125 7.046875 34.109375 5.742188 34.109375 3.140625 L 34.109375 0 L 14.34375 0 C 10.582031 0 7.835938 -0.9375 6.109375 -2.8125 C 4.378906 -4.6875 3.515625 -7.117188 3.515625 -10.109375 L 3.515625 -32.953125 L 12.796875 -32.953125 L 12.796875 -11.203125 C 12.796875 -8.640625 14.078125 -7.359375 16.640625 -7.359375 L 33.796875 -7.359375 L 33.796875 -32.953125 L 43.390625 -32.953125 L 43.390625 4.28125 C 43.390625 7.3125 42.515625 9.753906 40.765625 11.609375 C 39.015625 13.472656 36.285156 14.40625 32.578125 14.40625 Z M 10.9375 14.40625 "/></g></g></g><g fill="#545454" fill-opacity="1"><g transform="translate(775.409243, 387.477369)"><g><path d="M 4.484375 0 L 4.484375 -45.765625 L 42.8125 -45.765625 C 47.550781 -45.765625 51.234375 -44.566406 53.859375 -42.171875 C 56.484375 -39.785156 57.796875 -36.160156 57.796875 -31.296875 C 57.796875 -26.429688 56.484375 -22.800781 53.859375 -20.40625 C 51.234375 -18.019531 47.550781 -16.828125 42.8125 -16.828125 L 14.71875 -16.828125 L 14.71875 0 Z M 41.59375 -37.4375 L 14.71875 -37.4375 L 14.71875 -25.21875 L 41.59375 -25.15625 C 43.476562 -25.15625 44.921875 -25.625 45.921875 -26.5625 C 46.921875 -27.5 47.421875 -29.078125 47.421875 -31.296875 C 47.421875 -33.554688 46.921875 -35.144531 45.921875 -36.0625 C 44.921875 -36.976562 43.476562 -37.4375 41.59375 -37.4375 Z M 41.59375 -37.4375 "/></g></g></g><g fill="#545454" fill-opacity="1"><g transform="translate(835.117596, 387.477369)"><g><path d="M 3.515625 0 L 3.515625 -45.765625 L 12.796875 -45.765625 L 12.796875 -32.953125 L 32.25 -32.953125 C 36.007812 -32.953125 38.753906 -32.023438 40.484375 -30.171875 C 42.210938 -28.316406 43.078125 -25.875 43.078125 -22.84375 L 43.078125 0 L 33.796875 0 L 33.796875 -21.765625 C 33.796875 -24.316406 32.515625 -25.59375 29.953125 -25.59375 L 12.796875 -25.59375 L 12.796875 0 Z M 3.515625 0 "/></g></g></g><g fill="#545454" fill-opacity="1"><g transform="translate(881.386742, 387.477369)"><g><path d="M 12.28125 0 C 8.832031 0 6.1875 -0.875 4.34375 -2.625 C 2.507812 -4.375 1.59375 -6.867188 1.59375 -10.109375 C 1.59375 -13.304688 2.507812 -15.78125 4.34375 -17.53125 C 6.1875 -19.28125 8.832031 -20.15625 12.28125 -20.15625 L 36.859375 -20.15625 L 36.859375 -21.703125 C 36.859375 -24.296875 35.582031 -25.59375 33.03125 -25.59375 L 5.890625 -25.59375 L 5.890625 -32.953125 L 35.453125 -32.953125 C 39.335938 -32.953125 42.085938 -32.066406 43.703125 -30.296875 C 45.328125 -28.523438 46.140625 -26.039062 46.140625 -22.84375 L 46.140625 0 Z M 13.953125 -7.359375 L 36.859375 -7.359375 L 36.859375 -12.796875 L 13.953125 -12.796875 C 13.140625 -12.796875 12.507812 -12.550781 12.0625 -12.0625 C 11.613281 -11.570312 11.390625 -10.921875 11.390625 -10.109375 C 11.390625 -9.296875 11.613281 -8.632812 12.0625 -8.125 C 12.507812 -7.613281 13.140625 -7.359375 13.953125 -7.359375 Z M 13.953125 -7.359375 "/></g></g></g><g fill="#545454" fill-opacity="1"><g transform="translate(931.047688, 387.477369)"><g><path d="M 3.515625 0 L 3.515625 -32.953125 L 28.734375 -32.953125 C 32.441406 -32.953125 35.171875 -32.023438 36.921875 -30.171875 C 38.671875 -28.316406 39.546875 -25.875 39.546875 -22.84375 L 39.546875 -16 L 30.140625 -16 L 30.140625 -21.703125 C 30.140625 -24.253906 28.859375 -25.53125 26.296875 -25.53125 L 12.921875 -25.53125 L 12.921875 0 Z M 3.515625 0 "/></g></g></g><g fill="#545454" fill-opacity="1"><g transform="translate(972.19716, 387.477369)"><g><path d="M 3.515625 0 L 3.515625 -32.953125 L 46.203125 -32.953125 C 49.960938 -32.953125 52.71875 -32.023438 54.46875 -30.171875 C 56.21875 -28.316406 57.09375 -25.875 57.09375 -22.84375 L 57.09375 0 L 47.8125 0 L 47.8125 -21.703125 C 47.8125 -24.296875 46.488281 -25.59375 43.84375 -25.59375 L 34.9375 -25.59375 L 34.9375 0 L 25.65625 0 L 25.65625 -25.59375 L 12.796875 -25.59375 L 12.796875 0 Z M 3.515625 0 "/></g></g></g><g fill="#545454" fill-opacity="1"><g transform="translate(1032.481471, 387.477369)"><g><path d="M 12.28125 0 C 8.832031 0 6.1875 -0.875 4.34375 -2.625 C 2.507812 -4.375 1.59375 -6.867188 1.59375 -10.109375 C 1.59375 -13.304688 2.507812 -15.78125 4.34375 -17.53125 C 6.1875 -19.28125 8.832031 -20.15625 12.28125 -20.15625 L 36.859375 -20.15625 L 36.859375 -21.703125 C 36.859375 -24.296875 35.582031 -25.59375 33.03125 -25.59375 L 5.890625 -25.59375 L 5.890625 -32.953125 L 35.453125 -32.953125 C 39.335938 -32.953125 42.085938 -32.066406 43.703125 -30.296875 C 45.328125 -28.523438 46.140625 -26.039062 46.140625 -22.84375 L 46.140625 0 Z M 13.953125 -7.359375 L 36.859375 -7.359375 L 36.859375 -12.796875 L 13.953125 -12.796875 C 13.140625 -12.796875 12.507812 -12.550781 12.0625 -12.0625 C 11.613281 -11.570312 11.390625 -10.921875 11.390625 -10.109375 C 11.390625 -9.296875 11.613281 -8.632812 12.0625 -8.125 C 12.507812 -7.613281 13.140625 -7.359375 13.953125 -7.359375 Z M 13.953125 -7.359375 "/></g></g></g><g transform="matrix(1, 0, 0, 1, 476, 1093)"><g clip-path="url(#adb4fb06f8)"><g clip-path="url(#a3e7cece8d)"><g fill="#545454" fill-opacity="1"><g transform="translate(0.798811, 30.424504)"><g><path d="M 12.3125 0 L 12.3125 -8.28125 L 0 -23.21875 L 6.4375 -23.21875 L 14.90625 -12.703125 L 23.359375 -23.21875 L 29.78125 -23.21875 L 17.546875 -8.3125 L 17.546875 0 Z M 12.3125 0 "/></g></g></g></g><g fill="#545454" fill-opacity="1"><g transform="translate(26.366481, 30.424504)"><g><path d="M 10.359375 0.15625 C 7.460938 0.15625 5.203125 -0.5625 3.578125 -2 C 1.953125 -3.4375 1.140625 -5.550781 1.140625 -8.34375 C 1.140625 -11.164062 1.953125 -13.296875 3.578125 -14.734375 C 5.203125 -16.171875 7.460938 -16.890625 10.359375 -16.890625 L 16.375 -16.890625 C 19.269531 -16.890625 21.53125 -16.171875 23.15625 -14.734375 C 24.78125 -13.296875 25.59375 -11.164062 25.59375 -8.34375 C 25.59375 -5.550781 24.78125 -3.4375 23.15625 -2 C 21.53125 -0.5625 19.269531 0.15625 16.375 0.15625 Z M 10.359375 -3.578125 L 16.375 -3.578125 C 17.78125 -3.578125 18.851562 -3.960938 19.59375 -4.734375 C 20.34375 -5.515625 20.71875 -6.71875 20.71875 -8.34375 C 20.71875 -9.988281 20.34375 -11.203125 19.59375 -11.984375 C 18.851562 -12.765625 17.78125 -13.15625 16.375 -13.15625 L 10.359375 -13.15625 C 8.953125 -13.15625 7.875 -12.765625 7.125 -11.984375 C 6.382812 -11.203125 6.015625 -9.988281 6.015625 -8.34375 C 6.015625 -6.71875 6.382812 -5.515625 7.125 -4.734375 C 7.875 -3.960938 8.953125 -3.578125 10.359375 -3.578125 Z M 10.359375 -3.578125 "/></g></g></g><g fill="#545454" fill-opacity="1"><g transform="translate(53.103797, 30.424504)"><g><path d="M 7.109375 0 C 5.203125 0 3.8125 -0.472656 2.9375 -1.421875 C 2.0625 -2.378906 1.625 -3.613281 1.625 -5.125 L 1.625 -16.734375 L 6.328125 -16.734375 L 6.328125 -5.6875 C 6.328125 -4.382812 6.976562 -3.734375 8.28125 -3.734375 L 15.046875 -3.734375 C 16.335938 -3.734375 16.984375 -4.382812 16.984375 -5.6875 L 16.984375 -16.734375 L 21.703125 -16.734375 L 21.703125 -5.125 C 21.703125 -3.613281 21.257812 -2.378906 20.375 -1.421875 C 19.5 -0.472656 18.109375 0 16.203125 0 Z M 7.109375 0 "/></g></g></g><g fill="#545454" fill-opacity="1"><g transform="translate(76.429916, 30.424504)"><g><path d="M 1.78125 0 L 1.78125 -16.734375 L 14.578125 -16.734375 C 16.460938 -16.734375 17.847656 -16.257812 18.734375 -15.3125 C 19.628906 -14.375 20.078125 -13.132812 20.078125 -11.59375 L 20.078125 -8.125 L 15.296875 -8.125 L 15.296875 -11.015625 C 15.296875 -12.316406 14.644531 -12.96875 13.34375 -12.96875 L 6.5625 -12.96875 L 6.5625 0 Z M 1.78125 0 "/></g></g></g><g fill="#545454" fill-opacity="1"><g transform="translate(97.31946, 30.424504)"><g/></g></g><g fill="#545454" fill-opacity="1"><g transform="translate(108.690137, 30.424504)"><g><path d="M 2.28125 0 L 2.28125 -23.21875 L 21.734375 -23.21875 C 24.140625 -23.21875 26.003906 -22.613281 27.328125 -21.40625 C 28.660156 -20.195312 29.328125 -18.359375 29.328125 -15.890625 C 29.328125 -13.421875 28.660156 -11.578125 27.328125 -10.359375 C 26.003906 -9.148438 24.140625 -8.546875 21.734375 -8.546875 L 7.46875 -8.546875 L 7.46875 0 Z M 21.109375 -19 L 7.46875 -19 L 7.46875 -12.796875 L 21.109375 -12.765625 C 22.066406 -12.765625 22.800781 -13.003906 23.3125 -13.484375 C 23.820312 -13.960938 24.078125 -14.765625 24.078125 -15.890625 C 24.078125 -17.035156 23.820312 -17.835938 23.3125 -18.296875 C 22.800781 -18.765625 22.066406 -19 21.109375 -19 Z M 21.109375 -19 "/></g></g></g><g fill="#545454" fill-opacity="1"><g transform="translate(139.001082, 30.424504)"><g><path d="M 10.359375 0.15625 C 7.460938 0.15625 5.203125 -0.5625 3.578125 -2 C 1.953125 -3.4375 1.140625 -5.550781 1.140625 -8.34375 C 1.140625 -11.164062 1.953125 -13.296875 3.578125 -14.734375 C 5.203125 -16.171875 7.460938 -16.890625 10.359375 -16.890625 L 16.375 -16.890625 C 19.269531 -16.890625 21.53125 -16.171875 23.15625 -14.734375 C 24.78125 -13.296875 25.59375 -11.164062 25.59375 -8.34375 C 25.59375 -5.550781 24.78125 -3.4375 23.15625 -2 C 21.53125 -0.5625 19.269531 0.15625 16.375 0.15625 Z M 10.359375 -3.578125 L 16.375 -3.578125 C 17.78125 -3.578125 18.851562 -3.960938 19.59375 -4.734375 C 20.34375 -5.515625 20.71875 -6.71875 20.71875 -8.34375 C 20.71875 -9.988281 20.34375 -11.203125 19.59375 -11.984375 C 18.851562 -12.765625 17.78125 -13.15625 16.375 -13.15625 L 10.359375 -13.15625 C 8.953125 -13.15625 7.875 -12.765625 7.125 -11.984375 C 6.382812 -11.203125 6.015625 -9.988281 6.015625 -8.34375 C 6.015625 -6.71875 6.382812 -5.515625 7.125 -4.734375 C 7.875 -3.960938 8.953125 -3.578125 10.359375 -3.578125 Z M 10.359375 -3.578125 "/></g></g></g><g fill="#545454" fill-opacity="1"><g transform="translate(165.738405, 30.424504)"><g><path d="M 1.78125 0 L 1.78125 -23.21875 L 6.5 -23.21875 L 6.5 0 Z M 1.78125 0 "/></g></g></g><g fill="#545454" fill-opacity="1"><g transform="translate(174.022751, 30.424504)"><g><path d="M 1.78125 0 L 1.78125 -16.734375 L 6.5 -16.734375 L 6.5 0 Z M 1.765625 -19.484375 L 1.765625 -23.15625 L 6.53125 -23.15625 L 6.53125 -19.484375 Z M 1.765625 -19.484375 "/></g></g></g><g fill="#545454" fill-opacity="1"><g transform="translate(182.307096, 30.424504)"><g><path d="M 10.359375 0.15625 C 7.460938 0.15625 5.203125 -0.5625 3.578125 -2 C 1.953125 -3.4375 1.140625 -5.550781 1.140625 -8.34375 C 1.140625 -11.164062 1.953125 -13.296875 3.578125 -14.734375 C 5.203125 -16.171875 7.460938 -16.890625 10.359375 -16.890625 L 21.25 -16.890625 L 21.25 -13.15625 L 10.359375 -13.15625 C 8.953125 -13.15625 7.875 -12.765625 7.125 -11.984375 C 6.382812 -11.203125 6.015625 -9.988281 6.015625 -8.34375 C 6.015625 -6.71875 6.382812 -5.515625 7.125 -4.734375 C 7.875 -3.960938 8.953125 -3.578125 10.359375 -3.578125 L 21.5625 -3.578125 L 21.5625 0.15625 Z M 10.359375 0.15625 "/></g></g></g><g fill="#545454" fill-opacity="1"><g transform="translate(204.528642, 30.424504)"><g><path d="M 5.5625 7.3125 L 5.5625 3.578125 L 15.359375 3.578125 C 16.660156 3.578125 17.3125 2.914062 17.3125 1.59375 L 17.3125 0 L 7.28125 0 C 5.375 0 3.976562 -0.472656 3.09375 -1.421875 C 2.21875 -2.378906 1.78125 -3.613281 1.78125 -5.125 L 1.78125 -16.734375 L 6.5 -16.734375 L 6.5 -5.6875 C 6.5 -4.382812 7.148438 -3.734375 8.453125 -3.734375 L 17.15625 -3.734375 L 17.15625 -16.734375 L 22.03125 -16.734375 L 22.03125 2.171875 C 22.03125 3.710938 21.582031 4.953125 20.6875 5.890625 C 19.800781 6.835938 18.414062 7.3125 16.53125 7.3125 Z M 5.5625 7.3125 "/></g></g></g><g fill="#545454" fill-opacity="1"><g transform="translate(228.342064, 30.424504)"><g/></g></g><g fill="#545454" fill-opacity="1"><g transform="translate(239.712747, 30.424504)"><g><path d="M 14.234375 0.15625 C 9.941406 0.15625 6.65625 -0.832031 4.375 -2.8125 C 2.101562 -4.789062 0.96875 -7.726562 0.96875 -11.625 C 0.96875 -15.5 2.101562 -18.429688 4.375 -20.421875 C 6.65625 -22.421875 9.941406 -23.410156 14.234375 -23.390625 L 25.921875 -23.328125 L 25.921875 -19.171875 L 14.578125 -19.171875 C 11.765625 -19.171875 9.675781 -18.570312 8.3125 -17.375 C 6.945312 -16.1875 6.265625 -14.269531 6.265625 -11.625 C 6.265625 -8.988281 6.945312 -7.066406 8.3125 -5.859375 C 9.675781 -4.660156 11.765625 -4.0625 14.578125 -4.0625 L 26.25 -4.0625 L 26.25 0.15625 Z M 14.234375 0.15625 "/></g></g></g><g fill="#545454" fill-opacity="1"><g transform="translate(266.937378, 30.424504)"><g><path d="M 10.359375 0.15625 C 7.460938 0.15625 5.203125 -0.5625 3.578125 -2 C 1.953125 -3.4375 1.140625 -5.550781 1.140625 -8.34375 C 1.140625 -11.164062 1.953125 -13.296875 3.578125 -14.734375 C 5.203125 -16.171875 7.460938 -16.890625 10.359375 -16.890625 L 16.375 -16.890625 C 19.269531 -16.890625 21.53125 -16.171875 23.15625 -14.734375 C 24.78125 -13.296875 25.59375 -11.164062 25.59375 -8.34375 C 25.59375 -5.550781 24.78125 -3.4375 23.15625 -2 C 21.53125 -0.5625 19.269531 0.15625 16.375 0.15625 Z M 10.359375 -3.578125 L 16.375 -3.578125 C 17.78125 -3.578125 18.851562 -3.960938 19.59375 -4.734375 C 20.34375 -5.515625 20.71875 -6.71875 20.71875 -8.34375 C 20.71875 -9.988281 20.34375 -11.203125 19.59375 -11.984375 C 18.851562 -12.765625 17.78125 -13.15625 16.375 -13.15625 L 10.359375 -13.15625 C 8.953125 -13.15625 7.875 -12.765625 7.125 -11.984375 C 6.382812 -11.203125 6.015625 -9.988281 6.015625 -8.34375 C 6.015625 -6.71875 6.382812 -5.515625 7.125 -4.734375 C 7.875 -3.960938 8.953125 -3.578125 10.359375 -3.578125 Z M 10.359375 -3.578125 "/></g></g></g><g fill="#545454" fill-opacity="1"><g transform="translate(293.349804, 30.424504)"><g><path d="M 7.375 0 L 0.328125 -16.734375 L 5.265625 -16.734375 L 10.71875 -3.765625 L 12.34375 -3.765625 L 17.796875 -16.734375 L 22.734375 -16.734375 L 15.6875 0 Z M 7.375 0 "/></g></g></g><g fill="#545454" fill-opacity="1"><g transform="translate(316.091123, 30.424504)"><g><path d="M 10.359375 0.15625 C 7.460938 0.15625 5.203125 -0.5625 3.578125 -2 C 1.953125 -3.4375 1.140625 -5.550781 1.140625 -8.34375 C 1.140625 -11.164062 1.953125 -13.296875 3.578125 -14.734375 C 5.203125 -16.171875 7.460938 -16.890625 10.359375 -16.890625 L 18.484375 -16.890625 C 20.390625 -16.890625 21.84375 -16.441406 22.84375 -15.546875 C 23.851562 -14.648438 24.359375 -13.363281 24.359375 -11.6875 C 24.359375 -8.289062 22.398438 -6.59375 18.484375 -6.59375 L 6.203125 -6.59375 C 6.660156 -4.582031 8.046875 -3.578125 10.359375 -3.578125 L 23.515625 -3.578125 L 23.515625 0.15625 Z M 10.359375 -13.15625 C 8.128906 -13.15625 6.753906 -12.210938 6.234375 -10.328125 L 18.25 -10.328125 C 18.6875 -10.328125 19.03125 -10.457031 19.28125 -10.71875 C 19.53125 -10.976562 19.65625 -11.335938 19.65625 -11.796875 C 19.65625 -12.703125 19.1875 -13.15625 18.25 -13.15625 Z M 10.359375 -13.15625 "/></g></g></g><g fill="#545454" fill-opacity="1"><g transform="translate(341.593929, 30.424504)"><g><path d="M 1.78125 0 L 1.78125 -16.734375 L 14.578125 -16.734375 C 16.460938 -16.734375 17.847656 -16.257812 18.734375 -15.3125 C 19.628906 -14.375 20.078125 -13.132812 20.078125 -11.59375 L 20.078125 -8.125 L 15.296875 -8.125 L 15.296875 -11.015625 C 15.296875 -12.316406 14.644531 -12.96875 13.34375 -12.96875 L 6.5625 -12.96875 L 6.5625 0 Z M 1.78125 0 "/></g></g></g><g fill="#545454" fill-opacity="1"><g transform="translate(362.483474, 30.424504)"><g><path d="M 6.234375 0 C 4.484375 0 3.140625 -0.441406 2.203125 -1.328125 C 1.273438 -2.210938 0.8125 -3.476562 0.8125 -5.125 C 0.8125 -6.75 1.273438 -8.003906 2.203125 -8.890625 C 3.140625 -9.785156 4.484375 -10.234375 6.234375 -10.234375 L 18.71875 -10.234375 L 18.71875 -11.015625 C 18.71875 -12.335938 18.066406 -13 16.765625 -13 L 2.984375 -13 L 2.984375 -16.734375 L 18 -16.734375 C 19.96875 -16.734375 21.363281 -16.28125 22.1875 -15.375 C 23.007812 -14.476562 23.421875 -13.21875 23.421875 -11.59375 L 23.421875 0 Z M 7.078125 -3.734375 L 18.71875 -3.734375 L 18.71875 -6.5 L 7.078125 -6.5 C 6.671875 -6.5 6.351562 -6.375 6.125 -6.125 C 5.894531 -5.875 5.78125 -5.539062 5.78125 -5.125 C 5.78125 -4.71875 5.894531 -4.382812 6.125 -4.125 C 6.351562 -3.863281 6.671875 -3.734375 7.078125 -3.734375 Z M 7.078125 -3.734375 "/></g></g></g><g fill="#545454" fill-opacity="1"><g transform="translate(387.693872, 30.424504)"><g><path d="M 5.75 7.3125 L 5.75 3.578125 L 15.5625 3.578125 C 16.863281 3.578125 17.515625 2.914062 17.515625 1.59375 L 17.515625 0 L 10.359375 0 C 7.460938 0 5.203125 -0.710938 3.578125 -2.140625 C 1.953125 -3.566406 1.140625 -5.632812 1.140625 -8.34375 C 1.140625 -11.070312 1.953125 -13.148438 3.578125 -14.578125 C 5.203125 -16.015625 7.460938 -16.734375 10.359375 -16.734375 L 22.21875 -16.734375 L 22.21875 2.171875 C 22.21875 3.710938 21.773438 4.953125 20.890625 5.890625 C 20.003906 6.835938 18.617188 7.3125 16.734375 7.3125 Z M 10.359375 -3.734375 L 17.515625 -3.734375 L 17.515625 -13 L 10.359375 -13 C 8.953125 -13 7.875 -12.613281 7.125 -11.84375 C 6.382812 -11.070312 6.015625 -9.90625 6.015625 -8.34375 C 6.015625 -6.8125 6.382812 -5.660156 7.125 -4.890625 C 7.875 -4.117188 8.953125 -3.734375 10.359375 -3.734375 Z M 10.359375 -3.734375 "/></g></g></g><g fill="#545454" fill-opacity="1"><g transform="translate(411.702217, 30.424504)"><g><path d="M 10.359375 0.15625 C 7.460938 0.15625 5.203125 -0.5625 3.578125 -2 C 1.953125 -3.4375 1.140625 -5.550781 1.140625 -8.34375 C 1.140625 -11.164062 1.953125 -13.296875 3.578125 -14.734375 C 5.203125 -16.171875 7.460938 -16.890625 10.359375 -16.890625 L 18.484375 -16.890625 C 20.390625 -16.890625 21.84375 -16.441406 22.84375 -15.546875 C 23.851562 -14.648438 24.359375 -13.363281 24.359375 -11.6875 C 24.359375 -8.289062 22.398438 -6.59375 18.484375 -6.59375 L 6.203125 -6.59375 C 6.660156 -4.582031 8.046875 -3.578125 10.359375 -3.578125 L 23.515625 -3.578125 L 23.515625 0.15625 Z M 10.359375 -13.15625 C 8.128906 -13.15625 6.753906 -12.210938 6.234375 -10.328125 L 18.25 -10.328125 C 18.6875 -10.328125 19.03125 -10.457031 19.28125 -10.71875 C 19.53125 -10.976562 19.65625 -11.335938 19.65625 -11.796875 C 19.65625 -12.703125 19.1875 -13.15625 18.25 -13.15625 Z M 10.359375 -13.15625 "/></g></g></g><g fill="#545454" fill-opacity="1"><g transform="translate(437.205, 30.424504)"><g/></g></g><g fill="#545454" fill-opacity="1"><g transform="translate(448.575683, 30.424504)"><g><path d="M 2.28125 0 L 2.28125 -23.21875 L 7.46875 -23.21875 L 7.46875 -4.21875 L 24.453125 -4.21875 L 24.453125 0 Z M 2.28125 0 "/></g></g></g><g fill="#545454" fill-opacity="1"><g transform="translate(474.013491, 30.424504)"><g><path d="M 10.359375 0.15625 C 7.460938 0.15625 5.203125 -0.5625 3.578125 -2 C 1.953125 -3.4375 1.140625 -5.550781 1.140625 -8.34375 C 1.140625 -11.164062 1.953125 -13.296875 3.578125 -14.734375 C 5.203125 -16.171875 7.460938 -16.890625 10.359375 -16.890625 L 18.484375 -16.890625 C 20.390625 -16.890625 21.84375 -16.441406 22.84375 -15.546875 C 23.851562 -14.648438 24.359375 -13.363281 24.359375 -11.6875 C 24.359375 -8.289062 22.398438 -6.59375 18.484375 -6.59375 L 6.203125 -6.59375 C 6.660156 -4.582031 8.046875 -3.578125 10.359375 -3.578125 L 23.515625 -3.578125 L 23.515625 0.15625 Z M 10.359375 -13.15625 C 8.128906 -13.15625 6.753906 -12.210938 6.234375 -10.328125 L 18.25 -10.328125 C 18.6875 -10.328125 19.03125 -10.457031 19.28125 -10.71875 C 19.53125 -10.976562 19.65625 -11.335938 19.65625 -11.796875 C 19.65625 -12.703125 19.1875 -13.15625 18.25 -13.15625 Z M 10.359375 -13.15625 "/></g></g></g><g fill="#545454" fill-opacity="1"><g transform="translate(499.516274, 30.424504)"><g><path d="M 1.78125 0 L 1.78125 -16.734375 L 16.375 -16.734375 C 18.28125 -16.734375 19.671875 -16.257812 20.546875 -15.3125 C 21.421875 -14.375 21.859375 -13.132812 21.859375 -11.59375 L 21.859375 0 L 17.15625 0 L 17.15625 -11.046875 C 17.15625 -12.347656 16.503906 -13 15.203125 -13 L 6.5 -13 L 6.5 0 Z M 1.78125 0 "/></g></g></g><g fill="#545454" fill-opacity="1"><g transform="translate(523.004847, 30.424504)"><g><path d="M 1.234375 0.15625 L 1.234375 -3.578125 L 17.15625 -3.578125 C 18.0625 -3.578125 18.515625 -4.082031 18.515625 -5.09375 C 18.515625 -6.09375 18.0625 -6.59375 17.15625 -6.59375 L 6.859375 -6.59375 C 4.929688 -6.59375 3.46875 -7.03125 2.46875 -7.90625 C 1.46875 -8.78125 0.96875 -10.039062 0.96875 -11.6875 C 0.96875 -13.363281 1.472656 -14.648438 2.484375 -15.546875 C 3.492188 -16.441406 4.953125 -16.890625 6.859375 -16.890625 L 21.671875 -16.890625 L 21.671875 -13.15625 L 7.078125 -13.15625 C 6.148438 -13.15625 5.6875 -12.703125 5.6875 -11.796875 C 5.6875 -11.335938 5.816406 -10.976562 6.078125 -10.71875 C 6.335938 -10.457031 6.671875 -10.328125 7.078125 -10.328125 L 18 -10.328125 C 19.6875 -10.328125 20.976562 -9.890625 21.875 -9.015625 C 22.769531 -8.140625 23.21875 -6.867188 23.21875 -5.203125 C 23.21875 -3.503906 22.765625 -2.1875 21.859375 -1.25 C 20.953125 -0.3125 19.664062 0.15625 18 0.15625 Z M 1.234375 0.15625 "/></g></g></g></g></g></svg>